<ttFont>
<head>
    <!-- Most of this table will be recalculated by the compiler -->
    <tableVersion value="1.0"/>
    <fontRevision value="1.0"/>
    <checkSumAdjustment value="0x77640de5"/>
    <magicNumber value="0x5f0f3cf5"/>
    <flags value="00000000 00000011"/>
    <unitsPerEm value="2048"/>
    <created value="Thu Aug 15 19:00:09 2019"/>
    <modified value="Fri Aug 16 02:19:15 2019"/>
    <xMin value="-526"/>
    <yMin value="-500"/>
    <xMax value="3887"/>
    <yMax value="2032"/>
<macStyle value="00000000 00000001"/>
    <lowestRecPPEM value="3"/>
    <fontDirectionHint value="2"/>
    <indexToLocFormat value="0"/>
    <glyphDataFormat value="0"/>
  </head>
          <CharString index="0">
            rmoveto
            6 callsubr
            return
          </CharString>
          <CharString index="1">
            56 -15 9 -16 -58 vvcurveto
            return
          </CharString>
          <CharString index="2">
            -18 -20 -148 -17 vhcurveto
            -110 return
          </CharString>
          <CharString index="3">
            18 -20 -88 vvcurveto
            -974 vlineto
            -88 return
          </CharString>
          <CharString index="4">
            -568 29 callsubr
            return
          </CharString>
          <CharString index="5">
            rmoveto
            63 callsubr
            return
          </CharString>
          <CharString index="6">
            458 -344 131 callsubr
            138 callsubr
            107 callsubr
            endchar
          </CharString>
          <CharString index="7">
            316 -231 215 -335 -337 -242 -223 -321 return
          </CharString>
          <CharString index="8">
            rmoveto
            -18 callsubr
            55 callsubr
            endchar
          </CharString>
          <CharString index="9">
            -686 -70 callsubr
            return
          </CharString>
          <CharString index="10">
            148 17 vhcurveto
            110 return
          </CharString>
          <CharString index="11">
            -315 231 -216 334 -34 callgsubr
            4 callgsubr
            endchar
          </CharString>
          <CharString index="12">
            rmoveto
            338 242 223 321 return
          </CharString>
          <CharString index="13">
            1176 rmoveto
            373 383 rlineto
            13 return
          </CharString>
          <CharString index="14">
            43 callsubr
            endchar
          </CharString>
          <CharString index="15">
            rmoveto
            -34 callsubr
            1232 vlineto
            -49 callsubr
            -37 callsubr
            endchar
          </CharString>
          <CharString index="16">
            -77 callsubr
            endchar
          </CharString>
          <CharString index="17">
            48 callsubr
            endchar
          </CharString>
          <CharString index="18">
            rmoveto
            -675 vlineto
            -374 279 -197 330 374 236 230 365 3 vhcurveto
            5 643 1 90 18 20 135 18 rlinecurve
            110 -484 -70 callsubr
            17 -21 1 -95 4 -609 rcurveline
            226 callsubr
            endchar
          </CharString>
          <CharString index="19">
            56 -15 10 -16 -58 vvcurveto
            -460 vlineto
            -214 137 -124 207 178 122 83 102 54 vhcurveto
            -175 vlineto
            return
          </CharString>
          <CharString index="20">
            50 callsubr
            endchar
          </CharString>
          <CharString index="21">
            rmoveto
            -2 callsubr
            return
          </CharString>
          <CharString index="22">
            1560 rmoveto
            93 callgsubr
            return
          </CharString>
          <CharString index="23">
            584 110 vlineto
            -100 12 -15 15 64 vvcurveto
            return
          </CharString>
          <CharString index="24">
            -615 29 callsubr
            return
          </CharString>
          <CharString index="25">
            rmoveto
            974 vlineto
            88 18 20 return
          </CharString>
          <CharString index="26">
            -110 hlineto
            148 -17 return
          </CharString>
          <CharString index="27">
            25 callsubr
            endchar
          </CharString>
          <CharString index="28">
            rmoveto
            -463 -76 callsubr
            -106 callsubr
            -103 callsubr
            -84 callsubr
            579 vlineto
            48 return
          </CharString>
          <CharString index="29">
            rmoveto
            -77 callgsubr
            82 66 59 82 82 -66 58 -82 hvcurveto
            endchar
          </CharString>
          <CharString index="30">
            608 75 callsubr
            return
          </CharString>
          <CharString index="31">
            -58 0 -102 73 -19 rlineto
            return
          </CharString>
          <CharString index="32">
            66 53 48 66 67 -53 48 -66 hvcurveto
            -16 hlineto
            -66 1 callsubr
            return
          </CharString>
          <CharString index="33">
            625 110 vlineto
            -136 14 -20 17 79 vvcurveto
            return
          </CharString>
          <CharString index="34">
            -1028 29 callsubr
            return
          </CharString>
          <CharString index="35">
            1573 rmoveto
            82 66 return
          </CharString>
          <CharString index="36">
            rmoveto
            330 -547 rlineto
            -353 -32 callgsubr
            710 110 vlineto
            -156 18 -21 25 97 vvcurveto
            367 vlineto
            326 540 return
          </CharString>
          <CharString index="37">
            -110 vlineto
            148 -17 return
          </CharString>
          <CharString index="38">
            rmoveto
            316 -776 -82 -131 -117 -178 -77 -115 rlinecurve
            -8 302 vlineto
            167 460 100 245 205 505 56 136 20 14 99 17 rlinecurve
            110 -422 -110 vlineto
            128 -10 16 -25 -44 -118 rrcurveto
            -169 -445 -161 445 -42 118 15 24 129 11 rlinecurve
            110 -609 -110 vlineto
            97 -19 21 -21 52 -129 rrcurveto
            endchar
          </CharString>
          <CharString index="39">
            29 69 38 90 hhcurveto
            121 74 -72 -130 hvcurveto
            -463 vlineto
            -64 174 callsubr
            511 vlineto
            211 -142 123 -214 return
          </CharString>
          <CharString index="40">
            1607 rmoveto
            625 164 -625 hlineto
            return
          </CharString>
          <CharString index="41">
            65 callsubr
            -216 307 return
          </CharString>
          <CharString index="42">
            -47 callgsubr
            66 -60 82 hvcurveto
            return
          </CharString>
          <CharString index="43">
            rmoveto
            645 163 -645 hlineto
            endchar
          </CharString>
          <CharString index="44">
            974 19 callgsubr
            return
          </CharString>
          <CharString index="45">
            84 137 28 24 118 16 -76 callgsubr
            152 -17 8 -32 -73 -132 rrcurveto
            -226 -404 -232 404 -76 163 callsubr
            endchar
          </CharString>
          <CharString index="46">
            1571 rmoveto
            -223 -197 -220 197 return
          </CharString>
          <CharString index="47">
            674 110 vlineto
            -135 17 -19 18 85 vvcurveto
            return
          </CharString>
          <CharString index="48">
            1265 rmoveto
            694 181 -694 hlineto
            return
          </CharString>
          <CharString index="49">
            -344 vlineto
            -167 -396 rlineto
            return
          </CharString>
          <CharString index="50">
            120 -13 18 -17 -66 vvcurveto
            return
          </CharString>
          <CharString index="51">
            -410 -590 410 vlineto
            -15 callgsubr
            -974 -101 callgsubr
            return
          </CharString>
          <CharString index="52">
            533 1502 -107 callsubr
            -106 callsubr
            -73 callsubr
            return
          </CharString>
          <CharString index="53">
            1867 rmoveto
            -205 -148 -203 148 -137 0 return
          </CharString>
          <CharString index="54">
            1176 rmoveto
            223 197 220 -197 return
          </CharString>
          <CharString index="55">
            110 vlineto
            -156 18 -22 25 97 vvcurveto
            return
          </CharString>
          <CharString index="56">
            579 vlineto
            48 -68 callsubr
            return
          </CharString>
          <CharString index="57">
            -102 callgsubr
            -99 74 return
          </CharString>
          <CharString index="58">
            12 445 rlineto
            -104 hlineto
            return
          </CharString>
          <CharString index="59">
            -49 callsubr
            -58 return
          </CharString>
          <CharString index="60">
            rmoveto
            39 callgsubr
          </CharString>
          <CharString index="61">
            -255 154 -88 169 124 131 46 50 58 vhcurveto
            81 callgsubr
            return
          </CharString>
          <CharString index="62">
            -73 -26 -31 -30 hvcurveto
            -94 vlineto
            20 8 35 7 return
          </CharString>
          <CharString index="63">
            rlineto
            -88 vlineto
            2 8 18 2 15 hhcurveto
            73 return
          </CharString>
          <CharString index="64">
            rmoveto
            89 72 63 87 86 -72 62 -89 return
          </CharString>
          <CharString index="65">
            -248 0 -216 -307 rlineto
            return
          </CharString>
          <CharString index="66">
            1176 rmoveto
            138 hlineto
            return
          </CharString>
          <CharString index="67">
            235 -82 callsubr
            return
          </CharString>
          <CharString index="68">
            50 -24 -51 -49 -48 -25 -65 return
          </CharString>
          <CharString index="69">
            rmoveto
            -167 132 -108 154 -30 vhcurveto
            -167 -41 -106 -83 -119 vvcurveto
            -113 106 -74 148 -7 vhcurveto
            -207 -22 -101 -72 -100 vvcurveto
            -146 193 -105 351 359 237 153 222 188 -153 115 -277 vhcurveto
            -232 hlineto
            -92 -49 29 53 41 29 33 61 21 hvcurveto
            -7 48 36 -2 37 hhcurveto
            276 217 120 214 86 -42 86 -62 37 hvcurveto
            246 -18 0 148 -380 -24 rlineto
            30 -67 -99 18 -102 hhcurveto
            -291 -203 -147 -209 hvcurveto
            326 14 rmoveto
            120 67 88 104 109 72 -81 -138 -123 -71 -87 -99 -103 -79 79 142 vhcurveto
            -68 -908 rmoveto
            67 48 48 85 13 vhcurveto
            210 hlineto
            134 57 -44 -74 -92 -105 -67 -173 -165 -91 61 88 hvcurveto
            endchar
          </CharString>
          <CharString index="70">
            -59 -273 -53 -28 -258 -9 -250 -9 rcurveline
            548 214 vlineto
            71 24 -27 -169 29 hvcurveto
            98 518 -98 hlineto
            -169 -33 -22 -27 -69 hhcurveto
            -214 518 hlineto
            234 -8 228 -8 56 -37 54 -218 rlinecurve
            104 hlineto
            return
          </CharString>
          <CharString index="71">
            -263 -172 264 359 348 156 235 279 5 callgsubr
          </CharString>
          <CharString index="72">
            rmoveto
            -82 -65 -58 -82 -82 65 -59 82 82 66 59 82 82 -65 58 -83 hvcurveto
            endchar
          </CharString>
          <CharString index="73">
            -1186 -81 callsubr
            -104 callsubr
            -105 callsubr
            return
          </CharString>
          <CharString index="74">
            1558 rmoveto
            113 88 87 229 hvcurveto
            -125 hlineto
            -92 return
          </CharString>
          <CharString index="75">
            1207 rmoveto
            116 91 94 242 hvcurveto
            -126 hlineto
            -98 return
          </CharString>
          <CharString index="76">
            91 90 -73 65 -90 -90 -73 -65 -90 -91 72 -65 91 hvcurveto
            return
          </CharString>
          <CharString index="77">
            580 1444 -14 callsubr
            return
          </CharString>
          <CharString index="78">
            -89 -73 -62 -86 -87 72 -63 90 hvcurveto
            endchar
          </CharString>
          <CharString index="79">
            1914 rmoveto
            -112 -83 -43 -42 return
          </CharString>
          <CharString index="80">
            -157 396 rlineto
            -358 -13 hlineto
            return
          </CharString>
          <CharString index="81">
            -345 vlineto
            -166 -396 rlineto
            return
          </CharString>
          <CharString index="82">
            -181 -126 -81 -100 -54 vhcurveto
            return
          </CharString>
          <CharString index="83">
            vlineto
            -88 -18 -20 -147 -17 vhcurveto
            return
          </CharString>
          <CharString index="84">
            1873 rmoveto
            159 vlineto
            return
          </CharString>
          <CharString index="85">
            -115 67 -138 2 hvcurveto
            return
          </CharString>
          <CharString index="86">
            698 -52 callsubr
            return
          </CharString>
          <CharString index="87">
            rmoveto
            270 -748 222 0 239 653 231 -653 222 0 277 751 50 136 20 14 95 16 rlinecurve
            110 -392 -110 vlineto
            108 -8 15 -26 -40 -119 rrcurveto
            -147 -431 -140 431 -37 118 13 27 101 8 rlinecurve
            110 -559 -110 vlineto
            101 -8 16 -27 -41 -118 rrcurveto
            -148 -431 -140 431 -38 118 14 26 107 9 rlinecurve
            110 -586 -110 vlineto
            93 -19 27 -21 47 -129 rrcurveto
            endchar
          </CharString>
          <CharString index="88">
            rmoveto
            -460 351 -289 439 218 212 53 76 120 vhcurveto
            388 vlineto
            85 15 18 140 15 vhcurveto
            110 -636 -110 vlineto
            156 -15 16 -18 -83 vvcurveto
            -319 vlineto
            -32 -45 -70 -17 -85 hhcurveto
            -265 -174 264 359 348 155 235 278 185 120 -89 -230 57 hvcurveto
            104 hlineto
            -10 362 rlineto
            66 -93 -182 99 callgsubr
          </CharString>
          <CharString index="89">
            -416 1136 -298 0 -416 -1132 -60 -161 -23 -25 -127 -16 rlinecurve
            -110 501 110 vlineto
            -155 21 -21 28 52 151 rrcurveto
            53 153 487 0 52 -153 52 -150 -20 -29 -156 -21 rlinecurve
            -110 return
          </CharString>
          <CharString index="90">
            1438 1380 1444 rmoveto
            -1322 hlineto
            -10 -397 rlineto
            104 hlineto
            82 callsubr
            -94 callgsubr
            710 -52 callsubr
            1068 130 callsubr
            return
          </CharString>
          <CharString index="91">
            19 hvcurveto
            -126 -7 hlineto
            -95 -83 -73 -138 -136 -85 73 95 vhcurveto
            7 -126 vlineto
            -3 -19 -2 -23 -23 vvcurveto
            -170 127 -148 225 vhcurveto
            return
          </CharString>
          <CharString index="92">
            -18 20 -2 60 callgsubr
            1 91 17 19 136 20 rlinecurve
            110 -482 -110 vlineto
            144 -17 18 -20 1 -97 17 -885 rcurveline
            return
          </CharString>
          <CharString index="93">
            rmoveto
            -537 -110 hlineto
            137 -20 18 -23 -106 vvcurveto
            -4 -945 rlineto
            -91 -18 -19 -136 -20 vhcurveto
            -110 482 110 vlineto
            -144 17 return
          </CharString>
          <CharString index="94">
            rmoveto
            -461 351 -288 439 199 200 53 70 96 vhcurveto
            11 363 rlineto
            -44 callgsubr
            return
          </CharString>
          <CharString index="95">
            1215 rmoveto
            91 72 65 91 90 -72 65 -91 -90 -73 -65 -90 -91 return
          </CharString>
          <CharString index="96">
            141 0 -240 396 -242 0 -240 -396 rlineto
            return
          </CharString>
          <CharString index="97">
            12 490 rlineto
            -104 hlineto
            -72 -306 -75 -44 -207 -7 return
          </CharString>
          <CharString index="98">
            -110 hlineto
            147 -17 18 -20 -88 vvcurveto
            return
          </CharString>
          <CharString index="99">
            73 -65 90 hvcurveto
            504 hmoveto
            90 73 65 return
          </CharString>
          <CharString index="100">
            1197 rmoveto
            54 callgsubr
            return
          </CharString>
          <CharString index="101">
            13 vhcurveto
            110 -584 -110 vlineto
            return
          </CharString>
          <CharString index="102">
            rmoveto
            207 178 205 -178 return
          </CharString>
          <CharString index="103">
            1560 84 callgsubr
            return
          </CharString>
          <CharString index="104">
            -345 vlineto
            -167 -396 rlineto
            return
          </CharString>
          <CharString index="105">
            -333 244 -195 309 return
          </CharString>
          <CharString index="106">
            -110 vlineto
            -57 callsubr
            return
          </CharString>
          <CharString index="107">
            -3 -16 -2 -52 callgsubr
            return
          </CharString>
          <CharString index="108">
            -53 -48 -67 -66 53 -48 66 hvcurveto
            return
          </CharString>
          <CharString index="109">
            rmoveto
            118 80 70 129 hvcurveto
            return
          </CharString>
          <CharString index="110">
            1734 95 720 rmoveto
            return
          </CharString>
          <CharString index="111">
            1559 rmoveto
            186 vlineto
            return
          </CharString>
          <CharString index="112">
            1180 85 504 rmoveto
            return
          </CharString>
          <CharString index="113">
            -469 -76 callsubr
            return
          </CharString>
          <CharString index="114">
            -292 vlineto
            -65 -396 rlineto
            return
          </CharString>
          <CharString index="115">
            -141 -62 callgsubr
            return
          </CharString>
          <CharString index="116">
            840 178 319 rmoveto
            return
          </CharString>
          <CharString index="117">
            1752 581 230 rmoveto
            439 590 -439 175 callsubr
            return
          </CharString>
          <CharString index="118">
            rmoveto
            360 -1136 292 0 312 999 297 -999 299 0 357 1133 51 162 29 23 126 16 rlinecurve
            110 -496 -110 vlineto
            150 -20 12 -25 -41 -148 rrcurveto
            208 callsubr
            endchar
          </CharString>
          <CharString index="119">
            rmoveto
            242 -1 -194 155 -406 hhcurveto
            -711 -81 callsubr
            -104 callsubr
            -105 callsubr
            -60 callsubr
            151 callsubr
            endchar
          </CharString>
          <CharString index="120">
            rmoveto
            183 154 61 92 82 hvcurveto
            154 callsubr
            -329 244 -199 302 vhcurveto
            endchar
          </CharString>
          <CharString index="121">
            -184 -7 rcurveline
            1078 -16 callgsubr
            -974 -101 callgsubr
            vlineto
            return
          </CharString>
          <CharString index="122">
            rmoveto
            115 79 82 151 hvcurveto
            -124 hlineto
            -51 -25 -22 -60 callgsubr
            return
          </CharString>
          <CharString index="123">
            1580 rmoveto
            208 117 130 146 20 -1 20 -4 15 hvcurveto
            return
          </CharString>
          <CharString index="124">
            1388 503 1042 -107 callsubr
            -88 callsubr
            return
          </CharString>
          <CharString index="125">
            1271 1211 hmoveto
            -10 callsubr
            14 callsubr
            return
          </CharString>
          <CharString index="126">
            327 -105 0 112 -293 174 -69 0 -292 -174 rlineto
            return
          </CharString>
          <CharString index="127">
            1560 rmoveto
            136 hlineto
            -133 307 rlineto
            -357 -10 hlineto
            return
          </CharString>
          <CharString index="128">
            335 -89 0 94 -300 148 -71 0 -299 -148 rlineto
            return
          </CharString>
          <CharString index="129">
            rmoveto
            442 138 -33 callgsubr
            209 callsubr
            endchar
          </CharString>
          <CharString index="130">
            1182 rmoveto
            225 127 148 170 23 return
          </CharString>
          <CharString index="131">
            -54 15 20 -33 hvcurveto
            -107 vlineto
            -31 51 78 -20 94 hhcurveto
            return
          </CharString>
          <CharString index="132">
            686 110 vlineto
            -148 17 -18 20 88 vvcurveto
            return
          </CharString>
          <CharString index="133">
            1574 743 95 callsubr
            return
          </CharString>
          <CharString index="134">
            1176 rmoveto
            213 383 rlineto
            13 return
          </CharString>
          <CharString index="135">
            35 -1 rrcurveto
            60 -1 47 -23 -44 vvcurveto
            -45 return
          </CharString>
          <CharString index="136">
            vlineto
            -66 -18 -17 -120 -13 vhcurveto
            -110 return
          </CharString>
          <CharString index="137">
            hlineto
            -63 -50 -41 -56 -56 50 -40 63 hvcurveto
            return
          </CharString>
          <CharString index="138">
            63 50 40 56 56 -50 41 -63 hvcurveto
            return
          </CharString>
          <CharString index="139">
            -51 41 -63 hvcurveto
            -15 hlineto
            -64 -50 -41 return
          </CharString>
          <CharString index="140">
            -72 -62 -86 -87 71 -63 90 hvcurveto
            endchar
          </CharString>
          <CharString index="141">
            rmoveto
            646 163 -646 hlineto
            endchar
          </CharString>
          <CharString index="142">
            vlineto
            88 18 20 -97 callsubr
            return
          </CharString>
          <CharString index="143">
            -607 vlineto
            -285 -32 -134 return
          </CharString>
          <CharString index="144">
            -182 -127 -83 -102 -55 vhcurveto
            return
          </CharString>
          <CharString index="145">
            -671 -149 rlineto
            -91 vlineto
            return
          </CharString>
          <CharString index="146">
            -655 -174 rlineto
            -107 vlineto
            return
          </CharString>
          <CharString index="147">
            43 26 28 -7 -12 38 vhcurveto
            return
          </CharString>
          <CharString index="148">
            -54 24 callsubr
            endchar
          </CharString>
          <CharString index="149">
            -58 -79 -78 62 -57 78 hvcurveto
            return
          </CharString>
          <CharString index="150">
            rmoveto
            164 129 70 94 62 hvcurveto
            -98 29 103 -60 123 hhcurveto
            91 73 26 32 44 hvcurveto
            103 vlineto
            -4 -13 -17 -2 -20 hhcurveto
            -55 -45 31 84 hvcurveto
            434 vlineto
            255 -173 110 -287 -282 -196 -115 -148 -83 65 -55 90 92 66 62 82 38 -16 35 -25 25 vhcurveto
            10 34 39 5 41 hhcurveto
            139 87 -62 -166 hvcurveto
            -61 vlineto
            -226 -48 rlineto
            -311 -67 -112 -110 -158 vvcurveto
            -149 122 -110 185 vhcurveto
            17 313 rmoveto
            93 63 55 166 37 vhcurveto
            96 21 rlineto
            -267 vlineto
            -48 -32 -63 -33 -76 hhcurveto
            -88 -66 51 91 hvcurveto
            return
          </CharString>
          <CharString index="151">
            rmoveto
            -114 -162 -38 -26 -135 -16 rrcurveto
            -110 522 110 vlineto
            -153 21 -8 30 86 131 rrcurveto
            190 288 193 -288 88 -130 -9 -31 -153 -21 rlinecurve
            -110 728 110 vlineto
            -111 24 -43 26 -78 117 rrcurveto
            -324 480 264 378 109 158 41 25 134 16 rlinecurve
            110 -520 -110 vlineto
            153 -21 6 -30 -84 -131 rrcurveto
            -180 -279 -188 279 -87 130 9 31 153 21 rlinecurve
            110 -728 -110 vlineto
            113 -24 40 -26 79 -117 317 -471 rcurveline
            endchar
          </CharString>
          <CharString index="152">
            rmoveto
            -374 281 -197 329 360 249 226 369 3 vhcurveto
            7 805 rlineto
            -1 11 11 -1 10 hhcurveto
            168 98 71 123 103 -72 96 -92 56 hvcurveto
            -109 hlineto
            23 -29 15 -61 -56 vvcurveto
            -120 -1 -75 -105 -192 hhcurveto
            -135 -110 hlineto
            157 -23 16 -18 -90 vvcurveto
            4 -626 rlineto
            -265 2 -130 -130 -218 hhcurveto
            -210 -155 132 249 hvcurveto
            640 vlineto
            90 20 18 153 23 vhcurveto
            110 -683 -110 vlineto
            135 -22 20 -19 -90 vvcurveto
            endchar
          </CharString>
          <CharString index="153">
            281 -136 231 -204 126 vhcurveto
            -6 29 31 -3 31 hhcurveto
            174 120 64 137 1 hvcurveto
            1 103 -77 100 -96 58 rrcurveto
            -109 hlineto
            22 -29 16 -63 -53 vvcurveto
            -126 -1 -67 -93 -145 -103 -114 25 -144 -70 callgsubr
            107 callsubr
            endchar
          </CharString>
          <CharString index="154">
            rmoveto
            -580 -110 hlineto
            135 -17 21 -25 -3 -107 rrcurveto
            -20 -945 -3 -94 -16 -18 -135 -18 rlinecurve
            -110 475 110 vlineto
            -137 18 -17 19 -1 96 rrcurveto
            -1 948 421 -1191 201 0 100 327 299 866 20 -963 2 -86 -19 -18 -137 -16 rlinecurve
            -110 668 110 vlineto
            -146 17 -7 callgsubr
            endchar
          </CharString>
          <CharString index="155">
            187 157 59 94 84 vhcurveto
            110 vlineto
            -49 -58 -97 -29 -90 hhcurveto
            -221 -146 128 217 -30 hvcurveto
            666 hlineto
            3 20 2 35 36 vvcurveto
            279 -174 174 -296 -316 -224 -217 -329 vhcurveto
            539 403 rmoveto
            115 63 -95 -167 hvcurveto
            -6 0 -5 -4 vvcurveto
            -383 hlineto
            183 10 79 94 116 hhcurveto
            return
          </CharString>
          <CharString index="156">
            rmoveto
            291 -237 148 -400 vhcurveto
            -696 -81 callsubr
            -104 callsubr
            -105 callsubr
            -21 callsubr
            288 176 vlineto
            383 254 170 297 hvcurveto
            -375 -18 rmoveto
            -201 -122 -108 -239 -10 vhcurveto
            -77 -3 0 653 77 -3 rlineto
            246 -10 115 -119 -199 vvcurveto
            endchar
          </CharString>
          <CharString index="157">
            465 54 0 101 -73 20 rlineto
            -56 15 -10 16 58 vvcurveto
            792 vlineto
            6 callsubr
            -106 callsubr
            -527 vlineto
            -48 -28 -64 -38 -83 hhcurveto
            -119 -69 73 133 hvcurveto
            return
          </CharString>
          <CharString index="158">
            -44 hvcurveto
            -81 vlineto
            18 28 50 15 53 hhcurveto
            69 40 -26 -43 -43 -38 -39 -99 -63 hvcurveto
            114 hlineto
            168 64 62 58 76 vvcurveto
            88 -83 61 -125 vhcurveto
            return
          </CharString>
          <CharString index="159">
            1354 85 500 123 callsubr
            -37 callgsubr
            return
          </CharString>
          <CharString index="160">
            477 vlineto
            47 47 118 34 111 hhcurveto
            57 58 -8 -12 31 hvcurveto
            15 25 9 47 46 vvcurveto
            93 -42 78 -101 -109 -95 -84 -192 -105 vhcurveto
            return
          </CharString>
          <CharString index="161">
            rmoveto
            -6 -334 rlineto
            104 hlineto
            53 173 36 27 153 5 rrcurveto
            177 -82 callgsubr
            91 callgsubr
            endchar
          </CharString>
          <CharString index="162">
            705 110 vlineto
            -125 16 -27 24 -58 158 rrcurveto
            -864 289 rmoveto
            198 571 197 -571 rlineto
            return
          </CharString>
          <CharString index="163">
            -37 -44 hhcurveto
            -29 -26 14 25 -33 hvcurveto
            -32 24 rlineto
            42 -58 -50 25 -67 116 callsubr
            101 callgsubr
            return
          </CharString>
          <CharString index="164">
            514 vlineto
            294 -5 0 148 -294 -7 rlineto
            234 -84 vlineto
            -375 -281 rlineto
            -94 132 vlineto
            return
          </CharString>
          <CharString index="165">
            rmoveto
            -478 -58 0 -102 76 -19 rlineto
            60 -16 11 -15 -58 vvcurveto
            -460 vlineto
            -214 195 callsubr
            endchar
          </CharString>
          <CharString index="166">
            -39 -119 hhcurveto
            -119 -88 39 57 -3 hvcurveto
            -126 hlineto
            -150 -8 138 -92 206 hhcurveto
            return
          </CharString>
          <CharString index="167">
            1205 rmoveto
            96 77 69 97 96 -77 69 -96 -96 -78 -69 -96 -97 77 -69 97 hvcurveto
            return
          </CharString>
          <CharString index="168">
            -120 -6 hlineto
            -83 -76 -64 -124 -123 -77 64 83 vhcurveto
            6 -120 vlineto
            return
          </CharString>
          <CharString index="169">
            1580 rmoveto
            77 63 57 78 79 -63 58 -77 -78 233 callsubr
            return
          </CharString>
          <CharString index="170">
            -458 344 -294 426 470 305 330 426 return
          </CharString>
          <CharString index="171">
            -127 hlineto
            -43 -26 -20 -42 -27 -28 7 12 -38 vhcurveto
            -36 12 rlineto
            return
          </CharString>
          <CharString index="172">
            1560 rmoveto
            205 147 203 -147 137 0 return
          </CharString>
          <CharString index="173">
            -15 hlineto
            -64 -50 -41 -56 -56 50 -40 64 hvcurveto
            376 hmoveto
            return
          </CharString>
          <CharString index="174">
            1580 rmoveto
            78 62 57 78 79 -62 58 -78 -78 return
          </CharString>
          <CharString index="175">
            1566 rmoveto
            -225 -127 -149 -169 -24 return
          </CharString>
          <CharString index="176">
            -64 callgsubr
            -78 -69 -96 -97 78 -69 96 hvcurveto
            return
          </CharString>
          <CharString index="177">
            216 -308 247 0 216 308 rlineto
            return
          </CharString>
          <CharString index="178">
            215 -308 248 0 216 308 rlineto
            return
          </CharString>
          <CharString index="179">
            rmoveto
            213 382 rlineto
            14 7 callsubr
            return
          </CharString>
          <CharString index="180">
            67 53 48 66 67 -53 48 -67 hvcurveto
            -15 hlineto
            return
          </CharString>
          <CharString index="181">
            rmoveto
            73 callsubr
            182 callsubr
            return
          </CharString>
          <CharString index="182">
            110 vlineto
            -120 13 -19 17 66 vvcurveto
            return
          </CharString>
          <CharString index="183">
            -56 -56 50 -40 64 hvcurveto
            376 hmoveto
            64 return
          </CharString>
          <CharString index="184">
            -82 -151 hvcurveto
            124 hlineto
            51 25 22 return
          </CharString>
          <CharString index="185">
            rmoveto
            90 71 63 87 86 -71 62 -90 -89 return
          </CharString>
          <CharString index="186">
            hlineto
            97 22 24 156 18 vhcurveto
            110 return
          </CharString>
          <CharString index="187">
            -98 callsubr
            18 -20 -88 vvcurveto
            return
          </CharString>
          <CharString index="188">
            -215 307 -42 callsubr
            return
          </CharString>
          <CharString index="189">
            44 228 56 33 241 8 48 return
          </CharString>
          <CharString index="190">
            -1200 -95 callsubr
            return
          </CharString>
          <CharString index="191">
            1572 rmoveto
            -293 -13 hlineto
            return
          </CharString>
          <CharString index="192">
            650 -24 -95 callsubr
            return
          </CharString>
          <CharString index="193">
            -16 -58 vvcurveto
            36 callsubr
            return
          </CharString>
          <CharString index="194">
            vhcurveto
            -110 673 110 vlineto
            return
          </CharString>
          <CharString index="195">
            rmoveto
            672 127 -672 hlineto
            return
          </CharString>
          <CharString index="196">
            rmoveto
            115 78 82 151 hvcurveto
            return
          </CharString>
          <CharString index="197">
            rmoveto
            -242 297 199 242 79 98 32 25 104 14 rlinecurve
            110 -438 -110 vlineto
            118 -14 7 -21 -68 -86 rrcurveto
            -120 -150 -123 151 -69 84 8 22 120 14 rlinecurve
            110 -586 -110 vlineto
            70 -16 30 -19 75 -93 rrcurveto
            243 -298 -187 -225 -91 -109 -33 -28 -116 -19 rlinecurve
            -110 454 110 vlineto
            -109 14 -15 22 72 92 rrcurveto
            113 145 121 -149 73 -89 -13 -20 -115 -15 rlinecurve
            -110 590 110 vlineto
            -74 17 -33 22 -76 92 rrcurveto
            endchar
          </CharString>
          <CharString index="198">
            1611 192 1214 rmoveto
            -675 vlineto
            -374 279 -197 330 374 236 230 365 3 vhcurveto
            5 643 1 90 18 20 135 18 rlinecurve
            110 -484 -70 callsubr
            17 -21 1 -95 4 -609 rcurveline
            226 callsubr
            return
          </CharString>
          <CharString index="199">
            rmoveto
            -98 -91 -38 -43 -51 hvcurveto
            -105 vlineto
            3 10 19 4 24 hhcurveto
            67 30 -37 -100 hvcurveto
            -85 -5 -177 -80 vvcurveto
            -250 153 -160 289 290 207 204 387 299 -105 185 -162 -117 -72 -109 -142 33 vhcurveto
            148 -29 104 -145 -178 vvcurveto
            -188 -98 -100 -134 -138 -65 96 172 vhcurveto
            68 7 194 80 vvcurveto
            183 -85 91 -160 vhcurveto
            endchar
          </CharString>
          <CharString index="200">
            rmoveto
            -176 132 -92 196 -49 vhcurveto
            98 -23 rlineto
            120 -31 46 -37 -45 callgsubr
            122 -32 vhcurveto
            -103 hlineto
            6 -265 rlineto
            -53 93 151 -40 170 hhcurveto
            294 190 131 203 173 -108 96 -214 53 hvcurveto
            -98 23 rlineto
            -113 28 -59 36 70 vvcurveto
            73 69 43 111 137 92 -71 -118 33 vhcurveto
            104 hlineto
            -6 259 rlineto
            66 callgsubr
            hvcurveto
            return
          </CharString>
          <CharString index="201">
            1695 847 -30 rmoveto
            414 339 339 414 414 -339 339 -414 -413 -339 -339 -414 -414 339 -339 413 hvcurveto
            92 vmoveto
            -356 -293 298 363 363 293 298 356 357 293 -298 -363 -363 -293 -298 -357 hvcurveto
            return
          </CharString>
          <CharString index="202">
            rmoveto
            448 -342 253 -489 vhcurveto
            -682 -81 callsubr
            -104 callsubr
            -105 callsubr
            -56 callgsubr
            -390 -20 129 callsubr
            0 1192 98 callgsubr
            return
          </CharString>
          <CharString index="203">
            rmoveto
            330 268 163 293 215 -125 144 -281 87 hvcurveto
            -124 38 rlineto
            -155 47 -81 62 110 vvcurveto
            116 86 82 167 176 129 -98 -206 41 vhcurveto
            104 hlineto
            -10 344 rlineto
            211 callsubr
            -68 100 197 -53 209 hhcurveto
            return
          </CharString>
          <CharString index="204">
            rmoveto
            216 -170 126 -253 22 vhcurveto
            196 21 156 104 176 vvcurveto
            219 -202 132 -367 vhcurveto
            -729 -81 callsubr
            -104 callsubr
            -105 callsubr
            204 callsubr
            endchar
          </CharString>
          <CharString index="205">
            rmoveto
            201 135 109 175 -8 hvcurveto
            -123 hlineto
            -67 -4 -84 -45 -117 hhcurveto
            -116 -85 46 66 -3 hvcurveto
            -123 hlineto
            -175 -8 134 -109 201 hhcurveto
            -190 -1161 -93 callsubr
          </CharString>
          <CharString index="206">
            -126 hlineto
            -43 -26 -20 -43 -26 -29 7 12 -37 vhcurveto
            -37 12 rlineto
            -84 callgsubr
            -81 -91 callgsubr
            20 42 27 28 -7 -12 37 vhcurveto
            37 -11 rlineto
            -16 48 47 -12 54 hhcurveto
            return
          </CharString>
          <CharString index="207">
            rmoveto
            201 134 109 175 -7 hvcurveto
            -124 hlineto
            -67 -3 -85 -45 -116 hhcurveto
            -116 -85 46 66 -3 hvcurveto
            -124 hlineto
            -175 -7 134 -109 201 hhcurveto
            endchar
          </CharString>
          <CharString index="208">
            rmoveto
            13 -708 rlineto
            -240 5 119 -103 190 hhcurveto
            131 119 51 71 59 hvcurveto
            106 vlineto
            -22 -35 -50 -12 -57 hhcurveto
            -106 -73 55 146 4 hvcurveto
            21 656 rlineto
            endchar
          </CharString>
          <CharString index="209">
            483 1445 rmoveto
            -103 hlineto
            -276 -127 0 -69 152 32 rlineto
            -490 vlineto
            -57 -26 -17 -119 -11 vhcurveto
            -75 517 75 vlineto
            -119 11 -26 17 57 vvcurveto
            return
          </CharString>
          <CharString index="210">
            1176 rmoveto
            222 197 221 -197 79 callgsubr
            return
          </CharString>
          <CharString index="211">
            rmoveto
            189 49 171 141 213 vvcurveto
            144 -80 100 -125 -128 -74 -104 -130 vhcurveto
            100 -5 67 -56 -86 vvcurveto
            -81 -68 -58 -86 -27 vhcurveto
            endchar
          </CharString>
          <CharString index="212">
            1911 rmoveto
            -27 callgsubr
            4 17 1 -53 callgsubr
            return
          </CharString>
          <CharString index="213">
            -916 vlineto
            -312 -72 -135 -221 -146 vhcurveto
            46 -94 rlineto
            396 161 205 149 358 vvcurveto
            endchar
          </CharString>
          <CharString index="214">
            243 146 -276 -344 -332 -110 -254 -262 -243 -146 276 344 vhcurveto
            return
          </CharString>
          <CharString index="215">
            -110 vlineto
            97 -11 14 -16 -64 vvcurveto
            -700 -333 700 vlineto
            64 14 15 97 12 vhcurveto
            110 return
          </CharString>
          <CharString index="216">
            rmoveto
            206 138 92 150 -8 hvcurveto
            -126 hlineto
            -57 -3 -88 59 callsubr
            endchar
          </CharString>
          <CharString index="217">
            1573 rmoveto
            82 65 60 81 81 -65 59 -82 -82 -66 -59 -81 -81 65 -60 83 hvcurveto
            return
          </CharString>
          <CharString index="218">
            -162 -140 vhcurveto
            60 -90 81 51 rlineto
            290 186 94 157 300 vvcurveto
            endchar
          </CharString>
          <CharString index="219">
            -124 hlineto
            -51 -25 -22 -41 -26 -28 8 14 -37 vhcurveto
            -35 13 rlineto
            18 -47 -46 return
          </CharString>
          <CharString index="220">
            -40 -46 -112 -78 callgsubr
            71 68 89 vvcurveto
            104 -97 71 -140 vhcurveto
            return
          </CharString>
          <CharString index="221">
            -92 180 180 136 92 134 135 -136 93 -180 -180 return
          </CharString>
          <CharString index="222">
            -46 -25 -69 -57 -54 14 19 -34 vhcurveto
            -100 vlineto
            -27 43 76 -21 90 hhcurveto
            endchar
          </CharString>
          <CharString index="223">
            hhcurveto
            -116 -91 -93 -243 hvcurveto
            126 hlineto
            98 2 20 38 44 hhcurveto
            29 return
          </CharString>
          <CharString index="224">
            rmoveto
            326 -182 198 -234 -156 -129 -78 -111 -53 vhcurveto
            return
          </CharString>
          <CharString index="225">
            261 396 rmoveto
            -268 -13 hlineto
            187 -383 rlineto
            144 hlineto
            return
          </CharString>
          <CharString index="226">
            84 68 58 82 81 -68 58 -84 -84 -68 -58 -81 -82 68 -58 84 hvcurveto
            return
          </CharString>
          <CharString index="227">
            -50 -49 -51 hvcurveto
            -96 vlineto
            21 32 56 18 59 hhcurveto
            76 45 -31 -50 -50 return
          </CharString>
          <CharString index="228">
            1560 rmoveto
            137 hlineto
            -134 307 rlineto
            -357 -10 hlineto
            return
          </CharString>
          <CharString index="229">
            131 0 -223 357 -226 0 -223 -357 rlineto
            endchar
          </CharString>
          <CharString index="230">
            rmoveto
            -326 182 -198 233 157 128 77 110 return
          </CharString>
          <CharString index="231">
            1580 rmoveto
            -128 -94 -50 -49 -51 hvcurveto
            -96 vlineto
            21 31 return
          </CharString>
          <CharString index="232">
            0 336 -23 callsubr
            -672 -149 rlineto
            -91 vlineto
            return
          </CharString>
          <CharString index="233">
            1873 rmoveto
            672 -81 0 91 -672 149 rlineto
            return
          </CharString>
          <CharString index="234">
            1559 rmoveto
            655 -95 0 107 -655 174 rlineto
            return
          </CharString>
          <CharString index="235">
            -137 -4 rrcurveto
            -207 -7 534 806 rlineto
            99 vlineto
            return
          </CharString>
          <CharString index="236">
            rmoveto
            -362 -195 -221 -297 -10 vhcurveto
            -111 -4 return
          </CharString>
          <CharString index="237">
            vlineto
            49 -2 241 -8 56 -33 44 -228 rlinecurve
            104 hlineto
            return
          </CharString>
          <CharString index="238">
            294 -427 -469 -305 -330 -426 vhcurveto
            return
          </CharString>
          <CharString index="239">
            78 63 57 78 79 -63 58 -78 -77 -63 -58 -79 -78 return
          </CharString>
          <CharString index="240">
            -18 18 -17 -85 vvcurveto
            -1079 -481 1079 vlineto
            85 return
          </CharString>
          <CharString index="241">
            -2444 rmoveto
            250 2444 -250 hlineto
            return
          </CharString>
          <CharString index="242">
            -612 rmoveto
            213 hlineto
            937 1444 rlineto
            return
          </CharString>
          <CharString index="243">
            90 callgsubr
            94 157 300 vvcurveto
            endchar
          </CharString>
          <CharString index="244">
            615 vlineto
            66 19 17 120 13 vhcurveto
            110 return
          </CharString>
          <CharString index="245">
            392 19 rmoveto
            332 110 254 262 return
          </CharString>
          <CharString index="246">
            375 hmoveto
            132 callsubr
            62 -57 78 hvcurveto
            return
          </CharString>
          <CharString index="247">
            -15 hlineto
            -63 -51 -41 -56 -56 51 -40 63 hvcurveto
            endchar
          </CharString>
          <CharString index="248">
            hvcurveto
            376 hmoveto
            78 62 57 78 79 -62 58 -78 return
          </CharString>
          <CharString index="249">
            1867 rmoveto
            -204 22 callgsubr
            return
          </CharString>
          <CharString index="250">
            1317 921 hmoveto
            150 callsubr
            return
          </CharString>
          <CharString index="251">
            357 -225 0 -223 -357 rlineto
            endchar
          </CharString>
          <CharString index="252">
            -40 callsubr
            147 17 vhcurveto
            110 return
          </CharString>
          <CharString index="253">
            74 -140 -88 -72 -26 -31 -30 hvcurveto
            -94 vlineto
            return
          </CharString>
          <CharString index="254">
            -93 -135 vhcurveto
            210 183 callsubr
            return
          </CharString>
          <CharString index="255">
            rmoveto
            182 151 91 178 45 hvcurveto
            -164 83 180 -105 189 hhcurveto
            185 153 60 93 82 hvcurveto
            110 vlineto
            -49 -56 -97 -29 -89 hhcurveto
            -217 -145 130 219 -28 hvcurveto
            649 hlineto
            3 22 3 35 34 vvcurveto
            277 -172 173 -283 -131 -118 -48 -77 -71 vhcurveto
            81 -56 -113 44 -170 hhcurveto
            -253 -188 -111 -139 -81 62 -59 88 96 70 64 82 33 -13 31 -21 24 hvcurveto
            7 31 33 5 37 hhcurveto
            145 84 -75 -164 hvcurveto
            -50 vlineto
            -218 -39 rlineto
            -295 -52 -135 -110 -172 vvcurveto
            -170 136 -99 182 vhcurveto
            810 931 rmoveto
            113 56 -93 -165 hvcurveto
            -5 0 -5 -5 vvcurveto
            -365 hlineto
            182 10 77 91 109 hhcurveto
            -668 -760 rmoveto
            -85 -56 52 90 99 68 62 180 33 hvcurveto
            81 14 rlineto
            -121 vlineto
            -161 -85 -68 -103 vhcurveto
            endchar
          </CharString>
          <CharString index="256">
            rmoveto
            -1112 hlineto
            -551 -1126 -81 -169 -43 -26 -119 -13 rlinecurve
            -110 507 110 vlineto
            -139 20 -20 42 68 148 rrcurveto
            106 226 450 0 5 -316 rlineto
            -86 -18 -18 -136 -16 vhcurveto
            -110 1133 vlineto
            10 445 rlineto
            -103 hlineto
            -56 -273 -51 -25 -252 -12 rrcurveto
            -195 -9 -7 548 rlineto
            166 hlineto
            70 24 -27 -169 31 hvcurveto
            98 hlineto
            -6 518 rlineto
            -98 hlineto
            -169 -30 -22 -27 -69 hhcurveto
            -166 hlineto
            -6 518 180 -8 229 -11 55 -33 57 -218 rlinecurve
            104 hlineto
            -1037 270 rmoveto
            80 hlineto
            9 -637 rlineto
            -386 hlineto
            endchar
          </CharString>
          <CharString index="257">
            396 104 hlineto
            -67 20 -45 38 -96 176 rrcurveto
            -203 363 25 22 172 150 54 26 124 18 rlinecurve
            110 -518 -110 vlineto
            143 -18 9 -32 -110 -105 -157 -156 rcurveline
            -115 896 hlineto
            6 callsubr
            -106 callsubr
            -73 callsubr
            -84 callsubr
            278 120 vlineto
            return
          </CharString>
          <CharString index="258">
            382 186 vlineto
            309 -612 rlineto
            395 104 hlineto
            -59 16 -43 36 -108 205 rrcurveto
            -172 333 178 53 108 127 -2 173 rlinecurve
            -358 -23 rmoveto
            -182 -126 -95 -199 -6 vhcurveto
            -109 -3 0 580 95 -3 rlineto
            224 -8 115 -104 -179 vvcurveto
            return
          </CharString>
          <CharString index="259">
            626 110 vlineto
            -137 14 -20 17 79 vvcurveto
            320 vlineto
            -59 55 109 -45 111 hhcurveto
            264 209 211 340 hvcurveto
            -339 -25 rmoveto
            -239 -99 -133 -141 -81 -63 36 44 -25 vhcurveto
            564 vlineto
            56 28 65 36 79 hhcurveto
            142 95 -131 -233 hvcurveto
            endchar
          </CharString>
          <CharString index="260">
            26 66 38 85 hhcurveto
            113 71 -79 callgsubr
            -14 -15 -101 -12 vhcurveto
            -110 561 110 vlineto
            -101 12 -14 15 64 vvcurveto
            535 vlineto
            19 -1 18 -2 16 vhcurveto
            44 29 64 33 83 hhcurveto
            115 73 -79 callgsubr
            174 callsubr
            229 callsubr
            endchar
          </CharString>
          <CharString index="261">
            110 vlineto
            -50 -59 -101 -28 -90 hhcurveto
            -216 -158 146 254 216 118 130 162 40 34 -6 -11 29 hvcurveto
            -43 -26 -29 -50 -57 vvcurveto
            -86 67 -64 88 87 71 63 100 154 -134 127 -264 -305 -262 -204 -343 return
          </CharString>
          <CharString index="262">
            54 vhcurveto
            -177 vlineto
            463 54 0 101 -72 20 rlineto
            -57 15 -9 16 58 vvcurveto
            1252 vlineto
            -470 -58 0 -102 74 -19 rlineto
            55 -15 9 -16 -58 vvcurveto
            -287 vlineto
            60 -55 -108 44 -111 hhcurveto
            -264 -209 -211 -340 hvcurveto
            return
          </CharString>
          <CharString index="263">
            209 118 133 153 21 -1 20 -3 17 hvcurveto
            -118 -6 hlineto
            -86 -77 -65 -128 -127 -78 66 85 vhcurveto
            6 -118 vlineto
            -3 -17 -1 -20 -21 vvcurveto
            -153 118 -133 209 vhcurveto
            endchar
          </CharString>
          <CharString index="264">
            1484 1373 1047 rmoveto
            242 -1 -194 155 -406 hhcurveto
            -711 -81 callsubr
            -104 callsubr
            -105 callsubr
            -60 callsubr
            151 callsubr
            return
          </CharString>
          <CharString index="265">
            -214 hlineto
            -989 -731 18 callgsubr
            1253 -731 rmoveto
            220 154 164 261 -40 callgsubr
            -154 -165 -260 -259 155 -167 207 hvcurveto
            return
          </CharString>
          <CharString index="266">
            rmoveto
            170 114 75 121 120 -99 146 callsubr
            20 8 34 7 35 -1 rrcurveto
            61 -1 46 -23 -44 vvcurveto
            -45 115 callsubr
          </CharString>
          <CharString index="267">
            13 -52 hhcurveto
            -114 -80 -82 -150 hvcurveto
            124 hlineto
            50 25 22 42 25 28 -7 -15 37 vhcurveto
            36 -13 rlineto
            -18 46 47 -13 52 hhcurveto
            return
          </CharString>
          <CharString index="268">
            -189 rmoveto
            91 204 hlineto
            272 29 178 162 239 vvcurveto
            203 -121 121 -245 90 vhcurveto
            return
          </CharString>
          <CharString index="269">
            -2 -20 -37 -44 hhcurveto
            -29 -25 14 25 -34 hvcurveto
            -32 24 rlineto
            42 -58 -50 25 -66 hhcurveto
            -117 -91 -93 -243 hvcurveto
            return
          </CharString>
          <CharString index="270">
            131 10 33 153 17 rlinecurve
            110 -704 -110 vlineto
            117 -16 30 -28 86 -140 rrcurveto
            return
          </CharString>
          <CharString index="271">
            2 332 rlineto
            282 126 -282 hlineto
            1 174 -331 -41 rlineto
            -133 -138 vlineto
            endchar
          </CharString>
          <CharString index="272">
            1522 581 230 rmoveto
            442 138 -33 callgsubr
            209 callsubr
            return
          </CharString>
          <CharString index="273">
            -29 22 rlineto
            38 -54 -47 -105 callgsubr
            29 callgsubr
            54 47 -23 61 hhcurveto
            endchar
          </CharString>
          <CharString index="274">
            1854 rmoveto
            672 -82 0 91 -672 149 rlineto
            1 -521 rmoveto
            335 89 return
          </CharString>
          <CharString index="275">
            1573 rmoveto
            83 65 60 81 81 -65 59 -83 -81 -66 -59 -81 -81 65 -60 82 hvcurveto
            return
          </CharString>
          <CharString index="276">
            -2 -19 -34 -42 hhcurveto
            -28 -23 14 23 -33 hvcurveto
            -31 22 rlineto
            39 -57 -48 23 -63 hhcurveto
            return
          </CharString>
          <CharString index="277">
            1571 rmoveto
            -222 -197 -221 197 -140 -62 callgsubr
            return
          </CharString>
          <CharString index="278">
            615 vlineto
            66 18 17 120 -6 callsubr
            100 -13 15 -14 -64 vvcurveto
            return
          </CharString>
          <CharString index="279">
            236 -736 -43 callsubr
            -90 -72 -62 -86 -87 72 -63 90 hvcurveto
            endchar
          </CharString>
          <CharString index="280">
            64 1202 rmoveto
            138 -996 hlineto
            -66 -18 -17 -120 -13 vhcurveto
            -110 return
          </CharString>
          <CharString index="281">
            -15 -15 -100 -12 vhcurveto
            -110 584 110 vlineto
            -120 13 -18 17 66 vvcurveto
            return
          </CharString>
          <CharString index="282">
            vlineto
            -86 -17 -18 -136 -16 87 callsubr
            -146 17 -19 18 90 vvcurveto
            return
          </CharString>
          <CharString index="283">
            1739 rmoveto
            -82 -80 -29 -37 -47 hvcurveto
            -86 vlineto
            16 31 57 14 50 hhcurveto
            return
          </CharString>
          <CharString index="284">
            1214 rlineto
            104 -1151 vlineto
            -10 -397 rlineto
            104 hlineto
            49 214 return
          </CharString>
          <CharString index="285">
            -804 rlineto
            -99 913 vlineto
            6 350 rlineto
            -104 hlineto
            -44 -186 -50 -31 return
          </CharString>
          <CharString index="286">
            -146 vhcurveto
            46 -94 rlineto
            396 161 206 149 358 vvcurveto
            endchar
          </CharString>
          <CharString index="287">
            1067 vlineto
            193 -6 222 -7 62 -38 53 -214 rlinecurve
            104 hlineto
            endchar
          </CharString>
          <CharString index="288">
            104 85 86 104 106 -85 85 -104 -105 -85 -85 -106 -104 85 -86 105 hvcurveto
            endchar
          </CharString>
          <CharString index="289">
            -67 -53 -48 -67 -66 53 -48 67 hvcurveto
            395 hmoveto
            73 callsubr
            -66 return
          </CharString>
          <CharString index="290">
            hmoveto
            71 47 46 59 59 47 -46 -71 -70 -47 -47 -59 -59 -47 47 70 vhcurveto
            return
          </CharString>
          <CharString index="291">
            1849 rmoveto
            672 126 -672 hlineto
            163 -426 rmoveto
            63 return
          </CharString>
          <CharString index="292">
            1176 rmoveto
            177 383 rlineto
            13 -277 vlineto
            -36 -396 rlineto
            return
          </CharString>
          <CharString index="293">
            104 85 86 104 105 -85 86 -104 -105 -85 -86 -105 -104 85 -86 105 hvcurveto
            return
          </CharString>
          <CharString index="294">
            37 -12 rlineto
            -15 48 47 -11 54 hhcurveto
            -473 -305 rmoveto
            335 89 return
          </CharString>
          <CharString index="295">
            14 -52 hhcurveto
            -114 -80 77 callsubr
            65 callgsubr
            endchar
          </CharString>
          <CharString index="296">
            -213 74 -177 122 -129 vhcurveto
            -129 -137 96 -92 132 142 rlineto
            -94 131 165 -52 179 hhcurveto
            470 305 330 426 213 -74 177 -122 129 hvcurveto
            128 138 -95 91 -133 -142 rlineto
            94 -131 -165 52 -179 -70 callgsubr
            128 101 -76 -122 66 vhcurveto
            -629 -674 rlineto
            -25 85 -13 97 104 vvcurveto
            761 -34 rmoveto
            -332 -110 -254 -262 -128 -101 76 123 -67 vhcurveto
            629 674 rlineto
            25 -86 14 -97 -104 vvcurveto
            endchar
          </CharString>
          <CharString index="297">
            rmoveto
            335 241 223 319 142 -47 121 -81 91 hvcurveto
            95 98 -90 89 -101 -104 rlineto
            60 -91 -116 33 -131 hhcurveto
            -334 -241 -222 -320 -143 47 -123 84 -91 hvcurveto
            -90 -92 89 -89 97 100 rlineto
            -59 91 114 -33 129 hhcurveto
            -225 549 rmoveto
            241 81 141 144 76 64 -45 -82 43 vhcurveto
            -395 -406 rlineto
            -8 46 -5 50 55 vvcurveto
            239 -408 rmoveto
            -75 -62 44 79 -43 hvcurveto
            393 405 rlineto
            8 -44 5 -48 -53 vvcurveto
            -241 -82 -142 -144 vhcurveto
            endchar
          </CharString>
          <CharString index="298">
            rmoveto
            -300 170 -162 212 175 123 110 164 59 vhcurveto
            -152 44 113 -122 198 hhcurveto
            251 1 168 214 331 vvcurveto
            314 -131 215 -171 -129 -74 -124 -143 53 vhcurveto
            163 -35 112 -159 -173 vvcurveto
            -142 -77 -91 -105 -129 -75 123 263 vhcurveto
            189 -283 -194 vlineto
            -280 -72 -101 -102 -101 -55 98 193 212 69 172 118 115 vhcurveto
            -70 75 rlineto
            -278 -93 -176 -235 -283 vvcurveto
            endchar
          </CharString>
          <CharString index="299">
            rmoveto
            170 108 99 187 90 hvcurveto
            -200 48 78 -81 132 hhcurveto
            86 83 41 67 54 hvcurveto
            103 vlineto
            -11 -16 -25 -10 -27 hhcurveto
            -68 -56 59 264 -71 hvcurveto
            233 532 rlineto
            -311 hlineto
            -18 -87 -24 -96 -27 -95 rrcurveto
            196 -66 -105 107 -212 hhcurveto
            -268 -178 -223 -318 -349 172 -185 218 hvcurveto
            -51 555 rmoveto
            219 68 141 107 104 50 -100 -234 39 vhcurveto
            20 -127 rlineto
            -182 -68 -63 -71 -89 hhcurveto
            -108 -60 148 206 hvcurveto
            endchar
          </CharString>
          <CharString index="300">
            rmoveto
            241 176 85 118 93 hvcurveto
            110 vlineto
            -58 -77 -130 -43 -157 hhcurveto
            -157 -88 47 84 89 94 50 184 hvcurveto
            88 hlineto
            -39 195 rlineto
            -44 hlineto
            -210 -81 42 83 80 78 51 152 66 55 -8 -14 43 hvcurveto
            -21 -23 -13 -31 -34 vvcurveto
            -69 50 -60 86 79 58 62 76 127 -138 116 -311 -329 -169 -128 -174 -166 153 -90 227 -1 vhcurveto
            -242 -4 -163 -83 -156 vvcurveto
            -172 178 -101 268 vhcurveto
            endchar
          </CharString>
          <CharString index="301">
            rmoveto
            100 87 37 50 43 hvcurveto
            107 vlineto
            -14 -16 -26 -10 -33 hhcurveto
            -68 -52 68 117 39 10 44 17 36 hvcurveto
            288 38 198 210 290 vvcurveto
            -100 callsubr
            -300 209 -210 308 -19 vhcurveto
            -84 -72 -64 -94 -98 vvcurveto
            -121 103 -85 125 vhcurveto
            -18 612 rmoveto
            -138 -96 156 4 callgsubr
            endchar
          </CharString>
          <CharString index="302">
            138 -124 207 177 122 83 102 55 vhcurveto
            -175 vlineto
            472 54 0 101 -76 20 rlineto
            -60 16 -10 15 58 vvcurveto
            690 vlineto
            -2 15 16 -1 17 hhcurveto
            130 90 66 119 1 hvcurveto
            1 98 -74 103 -96 56 rrcurveto
            -108 hlineto
            20 -27 16 -56 -58 vvcurveto
            -140 -91 -72 -274 -29 vhcurveto
            -141 -14 0 -101 75 -19 rlineto
            61 -16 11 -15 -58 vvcurveto
            -527 vlineto
            -48 -29 -64 -38 -82 hhcurveto
            -119 -69 73 133 hvcurveto
            return
          </CharString>
          <CharString index="303">
            rmoveto
            -96 79 -70 107 159 118 110 256 140 vhcurveto
            461 853 60 109 24 22 128 16 rlinecurve
            110 -497 -110 vlineto
            170 -19 4 -16 -57 -115 rrcurveto
            -261 -532 -283 532 -60 113 7 18 170 19 rlinecurve
            110 -716 -110 vlineto
            128 -16 22 -23 61 -108 rrcurveto
            489 -861 -45 -88 -43 -62 -48 -37 rlinecurve
            86 -6 -67 67 -85 hhcurveto
            -89 -70 -70 -88 hvcurveto
            endchar
          </CharString>
          <CharString index="304">
            187 -81 157 -156 85 hvcurveto
            -12 46 51 -6 48 hhcurveto
            155 101 70 118 1 hvcurveto
            1 101 -73 104 -95 56 rrcurveto
            -108 hlineto
            21 -30 16 -60 -55 vvcurveto
            -120 -1 -73 -91 -139 -91 -75 27 -134 hhcurveto
            -326 -233 -231 -313 -318 220 -213 345 -34 callgsubr
            249 245 79 137 141 138 97 -155 -250 -245 -80 -137 -141 hvcurveto
            return
          </CharString>
          <CharString index="305">
            254 121 vlineto
            256 -455 rlineto
            395 104 hlineto
            -71 19 -42 46 -87 156 rrcurveto
            -204 349 25 25 179 177 50 24 119 17 rlinecurve
            110 -493 -110 vlineto
            124 -15 18 -41 -107 -109 -165 -170 rcurveline
            -118 244 hlineto
            64 15 14 100 -6 callsubr
            -57 callsubr
            -83 callsubr
            -84 callsubr
            endchar
          </CharString>
          <CharString index="306">
            rmoveto
            326 -182 197 -234 -155 -128 -76 -108 -53 vhcurveto
            4 635 -69 callgsubr
            -1234 161 vlineto
            109 130 rlineto
            -82 59 119 -71 146 hhcurveto
            270 215 210 341 hvcurveto
            -340 -26 rmoveto
            -238 -98 -134 -143 -81 -61 38 43 -25 vhcurveto
            564 vlineto
            56 28 65 35 79 hhcurveto
            142 94 -131 -233 hvcurveto
            return
          </CharString>
          <CharString index="307">
            340 hlineto
            97 -6 660 -1 vvcurveto
            66 28 64 42 85 hhcurveto
            124 63 -68 -210 -337 -5 -405 -9 -304 hvcurveto
            339 1111 hlineto
            291 -149 109 -208 -182 -120 -92 -111 -51 vhcurveto
            122 -17 -79 74 -129 hhcurveto
            -92 -90 -38 -43 -49 hvcurveto
            -105 vlineto
            3 11 19 3 20 hhcurveto
            84 35 -41 -114 -4 hvcurveto
            endchar
          </CharString>
          <CharString index="308">
            1983 rmoveto
            -80 -78 -26 -31 -47 hvcurveto
            -73 vlineto
            14 31 56 12 49 hhcurveto
            74 37 -23 -33 -33 -37 -23 -88 -18 hvcurveto
            94 -56 rlineto
            132 28 80 47 83 vvcurveto
            83 -98 49 -125 vhcurveto
            -611 -492 rmoveto
            335 89 21 callsubr
            return
          </CharString>
          <CharString index="309">
            rmoveto
            665 vlineto
            275 -5 0 148 -275 -6 rlineto
            171 vlineto
            142 50 56 77 1 vhcurveto
            -10 -17 -6 -20 -22 vvcurveto
            -73 54 -50 70 67 55 51 72 107 -101 82 -183 -234 -166 -142 -281 vhcurveto
            -76 vlineto
            -142 -50 rlineto
            -94 138 -673 29 callsubr
            -74 callsubr
            endchar
          </CharString>
          <CharString index="310">
            rmoveto
            187 -139 130 -314 vhcurveto
            -201 168 hlineto
            79 20 17 136 14 vhcurveto
            110 -625 -1 callsubr
            -83 callsubr
            693 vlineto
            253 177 123 199 hvcurveto
            -557 190 rmoveto
            145 78 -71 -120 -123 -92 -64 -135 -4 hvcurveto
            -93 -4 rlineto
            386 vlineto
            endchar
          </CharString>
          <CharString index="311">
            729 vlineto
            357 283 153 275 hvcurveto
            -430 629 rmoveto
            -153 -100 -89 -183 vhcurveto
            -136 503 hlineto
            109 -4 rlineto
            212 -7 98 -93 -157 vvcurveto
            55 -647 rmoveto
            -188 -144 -85 -221 -7 vhcurveto
            -109 -4 rlineto
            563 136 vlineto
            217 121 -99 -180 hvcurveto
            return
          </CharString>
          <CharString index="312">
            409 -1136 298 0 411 1132 59 161 24 25 127 16 rlinecurve
            110 -501 -110 vlineto
            156 -21 19 -28 -51 -151 rrcurveto
            -290 -857 -291 857 -51 150 20 29 156 21 rlinecurve
            110 -705 -110 vlineto
            124 -16 29 -24 57 -158 rrcurveto
            return
          </CharString>
          <CharString index="313">
            rmoveto
            319 244 219 321 320 -218 215 -335 -325 -244 -219 -321 -319 218 -216 341 hvcurveto
            10 144 rmoveto
            -138 -85 158 250 240 77 139 136 132 86 -157 -251 -241 -77 -138 -131 hvcurveto
            endchar
          </CharString>
          <CharString index="314">
            298 -748 221 0 299 750 55 136 18 14 98 17 rlinecurve
            110 -417 -110 vlineto
            127 -10 17 -25 -43 -118 rrcurveto
            -166 -453 -166 453 -43 119 19 23 126 11 rlinecurve
            110 -615 -110 vlineto
            98 -19 22 -21 52 -129 rrcurveto
            return
          </CharString>
          <CharString index="315">
            -235 -841 -241 834 -44 153 12 26 154 21 rlinecurve
            110 -672 -110 vlineto
            151 -20 12 -25 -41 -148 rrcurveto
            -236 -843 -240 836 -43 153 10 26 155 21 rlinecurve
            110 -694 -110 vlineto
            122 -16 32 -23 50 -159 rrcurveto
            return
          </CharString>
          <CharString index="316">
            -74 25 -40 43 -132 221 rrcurveto
            -312 527 165 -23 callgsubr
            -133 410 hlineto
            84 18 18 136 18 vhcurveto
            110 -674 -110 vlineto
            147 -17 19 -20 -88 vvcurveto
            -974 vlineto
            -88 -19 -20 -147 -17 vhcurveto
            -110 674 -106 callgsubr
            return
          </CharString>
          <CharString index="317">
            1512 1430 428 rmoveto
            216 -170 126 -253 22 vhcurveto
            196 21 156 104 176 vvcurveto
            219 -202 132 -367 vhcurveto
            -729 -81 callsubr
            -104 callsubr
            -105 callsubr
            204 callsubr
            return
          </CharString>
          <CharString index="318">
            64 -89 -167 47 -192 hhcurveto
            -371 -224 -183 -258 -211 141 -144 263 -80 hvcurveto
            124 -38 rlineto
            163 -50 75 -72 -117 vvcurveto
            -119 -99 -85 -162 -193 -157 101 217 -49 vhcurveto
            -104 hlineto
            10 -348 rlineto
            return
          </CharString>
          <CharString index="319">
            369 612 rmoveto
            188 152 90 173 106 -13 callgsubr
            -37 rlineto
            74 -18 callgsubr
            -50 -89 -39 -32 10 14 -25 hvcurveto
            23 16 15 27 30 vvcurveto
            52 -40 38 -53 -55 -39 -41 -53 -108 117 -82 174 vhcurveto
            return
          </CharString>
          <CharString index="320">
            -34 -42 hhcurveto
            -28 -24 14 23 -32 hvcurveto
            -31 22 rlineto
            39 -57 -48 23 -64 hhcurveto
            51 callgsubr
            24 -13 -23 32 hvcurveto
            31 -22 rlineto
            -40 57 48 -22 64 hhcurveto
            return
          </CharString>
          <CharString index="321">
            -492 rmoveto
            91 97 26 39 44 hvcurveto
            107 vlineto
            -13 -19 -34 -10 -42 hhcurveto
            -60 -53 35 74 79 52 73 156 122 hvcurveto
            -127 -1 rlineto
            -253 -137 -77 -109 -104 vvcurveto
            -116 96 -65 129 vhcurveto
            endchar
          </CharString>
          <CharString index="322">
            0 -173 1815 rmoveto
            63 50 41 55 57 -50 41 -63 hvcurveto
            -15 hlineto
            -64 -50 -41 -57 -55 50 -41 64 hvcurveto
            376 hmoveto
            63 50 41 55 57 -50 41 -63 hvcurveto
            -15 hlineto
            -63 -51 -41 -57 -55 51 -41 63 hvcurveto
            return
          </CharString>
          <CharString index="323">
            1379 1444 rmoveto
            -1321 hlineto
            -10 -392 rlineto
            104 hlineto
            45 224 60 29 225 8 38 2 rcurveline
            -1065 -100 callgsubr
            698 110 vlineto
            -146 17 -20 18 90 vvcurveto
            return
          </CharString>
          <CharString index="324">
            110 vlineto
            -49 -58 -97 -29 -90 hhcurveto
            -221 -146 128 217 -30 hvcurveto
            666 hlineto
            3 20 2 35 36 vvcurveto
            279 -174 174 -296 -316 -224 -217 -24 callgsubr
          </CharString>
          <CharString index="325">
            0 152 417 11 -511 rlineto
            -49 -10 -9 -78 -10 vhcurveto
            -76 421 76 vlineto
            -84 10 -11 10 51 vvcurveto
            -12 519 rlineto
            52 12 10 84 10 vhcurveto
            75 vlineto
            -384 3 -162 -509 rlineto
            return
          </CharString>
          <CharString index="326">
            407 194 vlineto
            71 24 -26 -170 29 hvcurveto
            98 519 -98 hlineto
            -171 -32 -22 -25 -70 hhcurveto
            -194 534 hlineto
            208 -7 232 -8 56 -36 54 -220 rlinecurve
            104 hlineto
            endchar
          </CharString>
          <CharString index="327">
            1815 rmoveto
            63 51 41 55 57 32 callsubr
            -57 -55 50 -41 64 hvcurveto
            376 hmoveto
            64 50 41 55 57 -50 41 -64 hvcurveto
            -15 hlineto
            -63 -50 -41 -57 -55 50 -41 63 hvcurveto
            return
          </CharString>
          <CharString index="328">
            107 vvcurveto
            129 -102 101 -167 -180 -108 -97 -136 -46 vhcurveto
            67 -32 rlineto
            69 32 60 45 82 hhcurveto
            84 52 -48 -70 -78 -43 -62 -128 -116 hvcurveto
            -188 -166 rlineto
            return
          </CharString>
          <CharString index="329">
            rmoveto
            -121 136 -81 180 97 callgsubr
            -180 -136 -80 -121 vhcurveto
            210 hmoveto
            57 47 38 59 59 47 -38 -57 -57 -47 -39 -59 -59 -47 39 57 vhcurveto
            endchar
          </CharString>
          <CharString index="330">
            454 1468 rmoveto
            -189 -49 -172 -141 -213 vvcurveto
            -144 81 -100 125 127 75 105 129 vhcurveto
            -100 6 -67 55 86 vvcurveto
            82 68 57 86 27 vhcurveto
            return
          </CharString>
          <CharString index="331">
            274 1476 rmoveto
            -89 -64 -56 -90 -1 hvcurveto
            -60 16 -48 31 -120 vhcurveto
            69 -270 77 0 69 270 30 118 17 50 -1 60 rlinecurve
            90 -64 56 -90 vhcurveto
            return
          </CharString>
          <CharString index="332">
            -206 31 rmoveto
            81 66 59 82 82 -66 58 -81 -77 callgsubr
            hvcurveto
            659 hmoveto
            82 66 59 82 82 -66 58 -82 -81 -66 -58 -82 -82 65 -59 82 hvcurveto
            endchar
          </CharString>
          <CharString index="333">
            -280 2 -136 -130 -221 hhcurveto
            -206 -152 132 249 hvcurveto
            646 35 callsubr
            -674 -110 vlineto
            135 -17 19 -18 -85 vvcurveto
            return
          </CharString>
          <CharString index="334">
            152 417 11 -511 rlineto
            -49 -11 -9 -78 -10 vhcurveto
            -76 422 76 vlineto
            -84 10 -12 10 51 vvcurveto
            -11 519 rlineto
            52 12 10 84 10 vhcurveto
            75 vlineto
            return
          </CharString>
          <CharString index="335">
            -110 vlineto
            165 -17 22 -23 -4 -112 rrcurveto
            -11 -310 -10 -311 -27 -213 -65 -119 rlinecurve
            45 -27 -49 29 -55 hhcurveto
            -92 -69 -71 -95 hvcurveto
            return
          </CharString>
          <CharString index="336">
            503 vlineto
            220 -140 122 -212 -179 -128 -90 -98 -51 vhcurveto
            122 -41 -123 66 -163 hhcurveto
            -177 -126 -88 -97 -50 hvcurveto
            return
          </CharString>
          <CharString index="337">
            -274 -72 -25 -257 -9 rrcurveto
            -290 -11 771 177 callsubr
            47 39 236 7 rrcurveto
            322 11 -770 -1214 rlineto
            -104 vlineto
            return
          </CharString>
          <CharString index="338">
            189 49 171 142 213 vvcurveto
            143 -80 100 -125 -128 -74 -104 -130 vhcurveto
            100 -5 67 -55 -86 vvcurveto
            -82 -68 -58 -86 -27 vhcurveto
            return
          </CharString>
          <CharString index="339">
            53 43 -9 -17 36 vhcurveto
            -35 -26 -23 -44 -50 vvcurveto
            -85 66 -64 88 86 72 64 89 178 -199 103 -231 -294 -240 -144 -274 return
          </CharString>
          <CharString index="340">
            -63 -58 -79 -78 63 -57 78 hvcurveto
            375 hmoveto
            78 62 57 78 79 -62 58 -78 -77 -63 42 callsubr
            return
          </CharString>
          <CharString index="341">
            vlineto
            48 29 69 38 90 hhcurveto
            121 74 -72 -130 hvcurveto
            return
          </CharString>
        <CharString name=".notdef">
          2048 80 -494 rmoveto
          250 2444 -250 hlineto
          410 134 callsubr
          409 134 callsubr
          410 134 callsubr
          409 134 callsubr
          endchar
        </CharString>
        <CharString name=".null">
          0 endchar
        </CharString>
        <CharString name="A">
          1538 1334 308 -99 callsubr
        </CharString>
        <CharString name="AE">
          2018 1890 1444 149 callsubr
        </CharString>
        <CharString name="AEacute">
          2018 1265 1560 rmoveto
          351 297 rlineto
          10 -344 vlineto
          -144 -307 rlineto
          762 -116 149 callsubr
        </CharString>
        <CharString name="AEmacron">
          2018 968 -67 callsubr
          922 -327 149 callsubr
        </CharString>
        <CharString name="Aacute">
          1538 750 -85 callsubr
          720 -1252 -99 callsubr
        </CharString>
        <CharString name="Abreve">
          1538 767 1580 rmoveto
          207 118 130 146 20 -2 20 -3 15 hvcurveto
          61 callsubr
          -4 -16 -1 -52 callgsubr
          567 -1272 -99 callsubr
        </CharString>
        <CharString name="Abreveacute">
          1538 1103 -23 callsubr
          -672 -149 rlineto
          -91 vlineto
          336 -267 rmoveto
          206 137 92 150 -7 hvcurveto
          -127 hlineto
          -57 -3 -87 59 callsubr
          567 -1217 -99 callsubr
        </CharString>
        <CharString name="Abrevecyrillic">
          1538 767 1573 rmoveto
          212 -85 callgsubr
          -78 -75 -52 -54 -68 -40 20 -36 29 -14 callgsubr
          145 -99 212 vhcurveto
          567 -1265 -99 callsubr
        </CharString>
        <CharString name="Abrevedotbelow">
          1538 767 1580 rmoveto
          207 118 130 146 20 -2 20 -3 15 hvcurveto
          61 callsubr
          -4 -16 -1 -52 callgsubr
          567 -1272 rmoveto
          -18 callsubr
          55 callsubr
          -157 -754 -78 callsubr
        </CharString>
        <CharString name="Abrevegrave">
          1538 431 1873 rmoveto
          671 -81 0 91 -671 149 rlineto
          336 -507 rmoveto
          206 137 92 150 -7 hvcurveto
          -127 hlineto
          -57 -3 -87 59 callsubr
          567 -1217 -99 callsubr
        </CharString>
        <CharString name="Abrevehookabove">
          1538 758 2030 rmoveto
          -85 -81 -26 -31 -49 hvcurveto
          -72 vlineto
          12 32 59 14 51 hhcurveto
          77 39 -24 -33 -33 -39 -23 -92 -17 hvcurveto
          98 -57 rlineto
          138 28 83 47 83 vvcurveto
          83 -101 49 -130 vhcurveto
          9 -505 rmoveto
          206 137 92 150 -7 hvcurveto
          -127 hlineto
          -57 -3 -87 59 callsubr
          567 -1217 -99 callsubr
        </CharString>
        <CharString name="Abrevetilde">
          1538 904 1815 rmoveto
          118 81 70 128 hvcurveto
          -127 hlineto
          -43 -26 -19 -43 -26 -28 7 12 -38 vhcurveto
          -37 11 rlineto
          16 -48 -47 11 -53 hhcurveto
          -118 -81 -70 59 callgsubr
          36 -12 rlineto
          -15 48 48 -12 53 hhcurveto
          -137 -290 rmoveto
          206 137 92 150 -7 hvcurveto
          -127 hlineto
          -57 -3 -87 59 callsubr
          567 -1217 -99 callsubr
        </CharString>
        <CharString name="Acaron">
          1538 986 142 callsubr
          213 -1559 -99 callsubr
        </CharString>
        <CharString name="Acircumflex">
          1538 578 -66 callsubr
          -248 0 -215 -307 rlineto
          890 -1252 -99 callsubr
        </CharString>
        <CharString name="Acircumflexacute">
          1538 1103 1854 -107 callgsubr
          -281 vmoveto
          336 89 21 callsubr
          902 -1277 -99 callsubr
        </CharString>
        <CharString name="Acircumflexdotbelow">
          1538 578 -66 callsubr
          -248 0 -215 -307 rlineto
          890 -1252 rmoveto
          -18 callsubr
          55 callsubr
          -157 -754 -78 callsubr
        </CharString>
        <CharString name="Acircumflexgrave">
          1538 431 1854 rmoveto
          671 -82 0 91 -671 149 rlineto
          -521 vmoveto
          336 89 21 callsubr
          902 -1277 -99 callsubr
        </CharString>
        <CharString name="Acircumflexhookabove">
          1538 1043 1983 rmoveto
          -81 -77 -26 -31 -47 hvcurveto
          -73 vlineto
          14 31 55 12 50 hhcurveto
          74 37 -23 -33 -33 -37 -23 -88 -18 hvcurveto
          94 -56 rlineto
          132 28 79 47 83 vvcurveto
          83 -98 49 -124 vhcurveto
          -612 -492 rmoveto
          336 89 21 callsubr
          902 -1277 -99 callsubr
        </CharString>
        <CharString name="Acircumflextilde">
          1538 904 1796 rmoveto
          118 81 70 128 hvcurveto
          -127 hlineto
          -43 -26 -20 -43 -26 -28 7 12 -38 vhcurveto
          -37 12 rlineto
          16 -48 -47 11 -53 hhcurveto
          -118 -81 -70 -98 callgsubr
          40 callsubr
          36 -12 rlineto
          -15 48 48 -11 53 hhcurveto
          -473 -305 rmoveto
          336 89 21 callsubr
          902 -1277 -99 callsubr
        </CharString>
        <CharString name="Acyrillic">
          1538 1334 308 -99 callsubr
        </CharString>
        <CharString name="Adblgrave">
          1538 585 -90 callgsubr
          166 -297 rlineto
          143 hlineto
          300 -1252 -99 callsubr
        </CharString>
        <CharString name="Adieresis">
          1538 579 1580 rmoveto
          78 62 57 78 79 -62 58 -78 -77 -63 -58 -79 -78 62 -57 78 141 callsubr
          -78 -62 42 callsubr
          379 -1272 -99 callsubr
        </CharString>
        <CharString name="Adieresismacron">
          1538 431 1849 rmoveto
          671 126 -671 hlineto
          163 -426 rmoveto
          31 callsubr
          -16 hlineto
          -63 -51 -41 -56 -56 51 -40 63 hvcurveto
          377 hmoveto
          31 callsubr
          -16 30 callsubr
          395 -1241 -99 callsubr
        </CharString>
        <CharString name="Adotaccent">
          1538 767 -72 callsubr
          -47 callgsubr
          65 -60 83 hvcurveto
          567 -1265 -99 callsubr
        </CharString>
        <CharString name="Adotbelow">
          1538 1334 308 rmoveto
          -18 callsubr
          55 callsubr
          -157 -754 -78 callsubr
        </CharString>
        <CharString name="Adotmacron">
          1538 431 1822 rmoveto
          671 127 -671 hlineto
          336 -412 rmoveto
          69 55 46 62 63 -55 45 -69 -69 -56 -45 -63 -62 55 -46 70 hvcurveto
          567 -1229 -99 callsubr
        </CharString>
        <CharString name="Agrave">
          1538 812 20 callsubr
          876 -1549 -99 callsubr
        </CharString>
        <CharString name="Ahookabove">
          1538 800 -28 callsubr
          -44 hvcurveto
          -81 vlineto
          18 28 51 15 53 -6 callgsubr
          534 -1606 -99 callsubr
        </CharString>
        <CharString name="Ainvertedbreve">
          1538 767 1911 rmoveto
          -208 -117 -129 -146 -20 1 -20 4 -16 hvcurveto
          120 6 hlineto
          84 75 64 125 122 78 -64 -84 vhcurveto
          -6 120 vlineto
          3 17 2 -53 callgsubr
          567 -1603 -99 callsubr
        </CharString>
        <CharString name="Alphagreek">
          1538 1334 308 -99 callsubr
        </CharString>
        <CharString name="Alphatonosgreek">
          1538 1334 308 rmoveto
          -18 callsubr
          705 110 vlineto
          -125 16 -27 24 -58 158 rrcurveto
          -1090 740 72 callsubr
          370 -451 rmoveto
          198 571 197 -571 rlineto
          endchar
        </CharString>
        <CharString name="Amacron">
          1538 454 -67 callsubr
          880 -1463 -99 callsubr
        </CharString>
        <CharString name="Aogonek">
          1538 1214 -492 rmoveto
          98 86 34 51 43 hvcurveto
          30 callgsubr
          264 110 hlineto
          -125 16 -27 24 -58 158 rrcurveto
          -18 callsubr
          310 vlineto
          -94 -71 -74 -108 -107 vvcurveto
          -127 101 -79 132 vhcurveto
          -744 1089 rmoveto
          198 571 197 -571 rlineto
          endchar
        </CharString>
        <CharString name="Aring">
          1538 482 1761 rmoveto
          -123 122 -84 163 162 122 84 123 122 -122 85 -162 -163 -122 7 callgsubr
          663 -1453 -99 callsubr
        </CharString>
        <CharString name="Aringacute">
          1538 1103 87 callgsubr
          378 -267 rmoveto
          141 91 48 72 73 -91 48 -141 hvcurveto
          -85 hlineto
          -139 -93 -48 -73 -72 93 -48 139 hvcurveto
          69 78 rmoveto
          -53 hlineto
          -43 -24 16 26 26 25 16 42 hvcurveto
          53 hlineto
          43 24 -16 -26 -26 -24 -16 -43 hvcurveto
          541 -1279 -99 callsubr
        </CharString>
        <CharString name="Aringbelow">
          1538 1334 308 rmoveto
          -18 callsubr
          55 callsubr
          -473 -894 222 callsubr
        </CharString>
        <CharString name="Atilde">
          1538 902 1558 rmoveto
          114 88 87 229 hvcurveto
          -126 hlineto
          -92 -2 -18 -34 -43 hhcurveto
          -28 -23 14 23 -33 hvcurveto
          -30 22 rlineto
          39 -57 -49 23 -63 hhcurveto
          51 callgsubr
          -67 callgsubr
          432 -1250 -99 callsubr
        </CharString>
        <CharString name="B">
          1512 1430 428 97 callsubr
        </CharString>
        <CharString name="Bdotaccent">
          1512 757 -72 callsubr
          -65 callsubr
          673 -1145 97 callsubr
        </CharString>
        <CharString name="Bdotbelow">
          210 callsubr
          -298 -567 -35 callsubr
        </CharString>
        <CharString name="Becyrillic">
          1458 1384 425 rmoveto
          256 -209 158 -383 vhcurveto
          -211 476 hlineto
          229 -6 231 -7 57 -37 54 -213 rlinecurve
          103 hlineto
          -10 392 rlineto
          -1184 -9 callsubr
          -974 -24 callsubr
          -110 734 vlineto
          368 221 166 259 hvcurveto
          -375 -7 rmoveto
          -179 -112 -99 -219 -8 vhcurveto
          -97 -2 0 575 97 -4 rlineto
          215 -7 116 -104 -172 vvcurveto
          endchar
        </CharString>
        <CharString name="Betagreek">
          1512 1430 428 97 callsubr
        </CharString>
        <CharString name="Blinebelow">
          210 callsubr
          -620 -788 -64 callsubr
        </CharString>
        <CharString name="C">
          1479 95 717 -13 callsubr
          -36 callsubr
        </CharString>
        <CharString name="Cacute">
          1479 848 -85 callsubr
          -617 -843 -13 callsubr
          -36 callsubr
        </CharString>
        <CharString name="Ccaron">
          1479 1084 142 callsubr
          -1124 -1150 -13 callsubr
          -36 callsubr
        </CharString>
        <CharString name="Ccedilla">
          1479 95 717 rmoveto
          -431 307 -280 398 -34 vhcurveto
          -90 -108 -44 callsubr
          -39 callsubr
          -54 24 callsubr
          -96 callgsubr
          -22 callsubr
          56 64 rlineto
          182 8 176 49 88 65 11 363 rcurveline
          -44 callgsubr
          -36 callsubr
        </CharString>
        <CharString name="Ccedillaacute">
          1479 848 -85 callsubr
          -617 -843 rmoveto
          -431 307 -280 398 -34 vhcurveto
          -90 -108 -44 callsubr
          -39 callsubr
          -54 24 callsubr
          -96 callgsubr
          -22 callsubr
          56 64 rlineto
          182 8 176 49 88 65 11 363 rcurveline
          -44 callgsubr
          -36 callsubr
        </CharString>
        <CharString name="Ccircumflex">
          1479 676 -66 callsubr
          -248 0 -215 -307 rlineto
          -447 -843 -13 callsubr
          -36 callsubr
        </CharString>
        <CharString name="Cdotaccent">
          1479 865 110 callsubr
          -770 -856 -13 callsubr
          -36 callsubr
        </CharString>
        <CharString name="Checyrillic">
          1694 1467 -40 callsubr
          148 67 callgsubr
          -463 vlineto
          -25 -66 -94 -15 -99 hhcurveto
          -205 -98 100 218 hvcurveto
          185 vlineto
          86 16 18 137 16 vhcurveto
          110 -661 -110 vlineto
          136 -16 17 -18 -86 vvcurveto
          -190 vlineto
          -325 204 -156 330 155 141 31 38 87 vhcurveto
          -362 vlineto
          -97 -22 -24 -162 -19 vhcurveto
          -110 705 110 vlineto
          -148 17 -18 20 88 vvcurveto
          endchar
        </CharString>
        <CharString name="Chigreek">
          1488 289 314 44 callsubr
        </CharString>
        <CharString name="D">
          1656 26 callsubr
          endchar
        </CharString>
        <CharString name="Dbar">
          1656 61 677 rmoveto
          166 -442 hlineto
          -88 -105 callsubr
          701 vlineto
          445 367 296 447 448 -342 253 -489 hvcurveto
          -682 -81 callsubr
          18 -20 -88 vvcurveto
          -406 -166 vlineto
          1123 -80 129 callsubr
          rlineto
          551 290 126 -290 515 vlineto
          98 callgsubr
          endchar
        </CharString>
        <CharString name="Dcaron">
          1656 1005 -54 callsubr
          70 callsubr
          435 -1124 95 callsubr
          endchar
        </CharString>
        <CharString name="Dcircumflexbelow">
          1656 26 callsubr
          -645 -1199 -71 callgsubr
        </CharString>
        <CharString name="Dcommaaccent">
          1656 26 callsubr
          -465 -1215 159 callsubr
        </CharString>
        <CharString name="Ddotaccent">
          1656 785 1573 rmoveto
          83 65 60 81 81 -65 59 -83 -81 -67 -59 -81 -81 66 -60 82 hvcurveto
          789 -830 95 callsubr
          endchar
        </CharString>
        <CharString name="Ddotbelow">
          1656 26 callsubr
          -438 -880 -35 callsubr
        </CharString>
        <CharString name="Decyrillic">
          1591 1537 135 rmoveto
          -200 1060 79 callsubr
          -1321 -110 vlineto
          163 -18 25 -17 -6 -121 rrcurveto
          -10 -257 -18 -379 -43 -261 -125 -146 rlinecurve
          -152 hlineto
          -8 -443 rlineto
          113 hlineto
          270 60 94 38 243 hhcurveto
          508 hlineto
          257 80 -52 -256 58 hvcurveto
          112 hlineto
          -562 443 rmoveto
          -613 hlineto
          99 155 39 240 17 391 16 388 rcurveline
          442 hlineto
          endchar
        </CharString>
        <CharString name="Deltagreek">
          1413 38 hmoveto
          1337 177 hlineto
          -520 1267 -297 0 -520 -1265 rlineto
          196 60 rmoveto
          373 960 373 -960 rlineto
          endchar
        </CharString>
        <CharString name="Djecyrillic">
          1811 216 callsubr
          387 vlineto
          26 46 73 18 76 hhcurveto
          191 114 -117 -250 -263 -101 -195 -197 -143 hvcurveto
          51 -89 rlineto
          357 140 245 257 337 vvcurveto
          319 -209 177 -309 -143 -125 -38 -40 -69 vhcurveto
          554 85 callgsubr
        </CharString>
        <CharString name="Dlinebelow">
          1656 26 callsubr
          -760 -1101 -64 callsubr
        </CharString>
        <CharString name="Dzecyrillic">
          1309 618 -32 96 callsubr
          endchar
        </CharString>
        <CharString name="Dzhecyrillic">
          1742 1515 1209 rmoveto
          88 18 20 147 17 vhcurveto
          110 -673 -110 vlineto
          134 -17 19 -18 -85 vvcurveto
          -1079 -579 1079 vlineto
          85 19 18 135 17 vhcurveto
          110 -674 -70 callsubr
          -104 callsubr
          -105 callsubr
          575 vlineto
          107 23 -24 -284 49 hvcurveto
          112 hlineto
          284 48 24 24 106 hhcurveto
          575 110 hlineto
          -88 callgsubr
        </CharString>
        <CharString name="E">
          1373 1247 1444 -92 callsubr
        </CharString>
        <CharString name="Eacute">
          1373 696 -4 callsubr
          688 -116 -92 callsubr
        </CharString>
        <CharString name="Ebreve">
          1373 712 16 callsubr
          61 callsubr
          0 callsubr
          535 -136 -92 callsubr
        </CharString>
        <CharString name="Ecaron">
          1373 932 -54 callsubr
          71 callsubr
          181 -423 -92 callsubr
        </CharString>
        <CharString name="Ecedilla">
          1373 682 -492 rmoveto
          -96 callgsubr
          -22 callsubr
          83 95 493 0 -49 callsubr
          -37 callsubr
          -10 397 rlineto
          -34 callsubr
          602 vlineto
          -114 -136 -44 callsubr
          -39 callsubr
          41 callsubr
        </CharString>
        <CharString name="Ecedillabreve">
          1373 712 16 callsubr
          61 callsubr
          0 callsubr
          -30 -2072 rmoveto
          -96 callgsubr
          -22 callsubr
          83 95 493 0 -49 callsubr
          -37 callsubr
          -10 397 rlineto
          -34 callsubr
          602 vlineto
          -114 -136 -44 callsubr
          -39 callsubr
          41 callsubr
        </CharString>
        <CharString name="Ecircumflex">
          1373 523 65 callsubr
          81 callsubr
          858 -116 -92 callsubr
        </CharString>
        <CharString name="Ecircumflexacute">
          1373 1048 33 callgsubr
          21 callsubr
          870 -141 -92 callsubr
        </CharString>
        <CharString name="Ecircumflexbelow">
          1373 1247 1444 rmoveto
          -34 callsubr
          1232 vlineto
          -49 callsubr
          -37 callsubr
          -745 -1523 rmoveto
          208 178 205 -178 130 -81 callgsubr
        </CharString>
        <CharString name="Ecircumflexdotbelow">
          1373 523 65 callsubr
          81 callsubr
          858 -116 rmoveto
          -34 callsubr
          1232 vlineto
          -49 callsubr
          -37 callsubr
          -538 -1204 -35 callsubr
        </CharString>
        <CharString name="Ecircumflexgrave">
          1373 376 167 callsubr
          21 callsubr
          870 -141 -92 callsubr
        </CharString>
        <CharString name="Ecircumflexhookabove">
          1373 988 201 callsubr
          870 -141 -92 callsubr
        </CharString>
        <CharString name="Ecircumflextilde">
          1373 850 -49 callgsubr
          64 callsubr
          -36 callgsubr
          -98 callgsubr
          40 callsubr
          187 callsubr
          21 callsubr
          870 -141 -92 callsubr
        </CharString>
        <CharString name="Ecyrillic">
          1504 95 717 -13 callsubr
          -244 -166 228 321 -23 hvcurveto
          591 -6 0 149 -591 -6 rlineto
          313 17 154 207 262 hhcurveto
          5 callgsubr
        </CharString>
        <CharString name="Edblgrave">
          1373 530 -90 callgsubr
          -86 callgsubr
          268 -116 -92 callsubr
        </CharString>
        <CharString name="Edieresis">
          1373 525 62 callsubr
          347 -136 -92 callsubr
        </CharString>
        <CharString name="Edotaccent">
          1373 712 -72 callsubr
          -65 callsubr
          535 -129 -92 callsubr
        </CharString>
        <CharString name="Edotbelow">
          1373 1247 1444 rmoveto
          -34 callsubr
          1232 vlineto
          -49 callsubr
          -37 callsubr
          -538 -1204 -35 callsubr
        </CharString>
        <CharString name="Efcyrillic">
          2018 67 715 rmoveto
          -289 267 -180 509 -14 vhcurveto
          -15 vlineto
          -97 -21 -24 -156 -18 vhcurveto
          -110 686 110 vlineto
          -156 18 -21 24 97 vvcurveto
          15 vlineto
          509 14 268 179 298 vvcurveto
          284 -240 191 -537 14 vhcurveto
          15 vlineto
          97 21 24 156 18 vhcurveto
          110 -686 -110 vlineto
          156 -18 21 -24 -97 vvcurveto
          -15 vlineto
          -537 -14 -239 -189 -294 vvcurveto
          1510 6 rmoveto
          -187 -127 -148 -275 -20 vhcurveto
          712 vlineto
          295 -19 107 -150 -188 vvcurveto
          -1136 4 rmoveto
          185 117 149 285 19 vhcurveto
          -712 vlineto
          -284 20 -118 151 188 vvcurveto
          endchar
        </CharString>
        <CharString name="Egrave">
          1373 757 121 callsubr
          844 -413 -92 callsubr
        </CharString>
        <CharString name="Ehookabove">
          1373 746 -28 callsubr
          51 callsubr
          501 -470 -92 callsubr
        </CharString>
        <CharString name="Einvertedbreve">
          1373 712 105 callsubr
          535 -467 -92 callsubr
        </CharString>
        <CharString name="Elcyrillic">
          1595 13 callgsubr
          437 -1074 hlineto
          -90 -19 -18 -145 -17 vhcurveto
          -110 684 110 vlineto
          -145 17 -20 18 90 vvcurveto
          974 vlineto
          90 20 18 145 17 vhcurveto
          110 -1304 228 callsubr
          endchar
        </CharString>
        <CharString name="Emacron">
          1373 400 -67 callsubr
          847 -327 -92 callsubr
        </CharString>
        <CharString name="Emacronacute">
          1373 1048 -23 callsubr
          38 callsubr
          -1 -210 88 callsubr
          871 -265 -92 callsubr
        </CharString>
        <CharString name="Emacrongrave">
          1373 376 126 callsubr
          -42 callgsubr
          871 -265 -92 callsubr
        </CharString>
        <CharString name="Emcyrillic">
          1960 644 1444 47 callsubr
        </CharString>
        <CharString name="Encyrillic">
          10 callsubr
          -63 callsubr
          -56 callsubr
          -60 callsubr
          endchar
        </CharString>
        <CharString name="Eogonek">
          1373 1077 -492 rmoveto
          98 86 34 51 44 hvcurveto
          107 vlineto
          -13 -15 -28 -9 -31 hhcurveto
          -66 -59 72 109 55 14 52 24 34 hvcurveto
          149 hlineto
          -49 callsubr
          -37 callsubr
          -10 397 rlineto
          -34 callsubr
          952 vlineto
          -94 -71 -74 -108 -107 vvcurveto
          -127 100 -79 132 vhcurveto
          endchar
        </CharString>
        <CharString name="Epsilongreek">
          1373 1247 1444 -92 callsubr
        </CharString>
        <CharString name="Epsilontonosgreek">
          1751 1624 1444 rmoveto
          -1185 -9 callsubr
          -974 -24 callsubr
          -110 1231 vlineto
          -48 callsubr
          -273 -54 -28 -258 -9 -249 -9 rcurveline
          548 213 vlineto
          71 24 -27 -169 30 hvcurveto
          98 518 -98 hlineto
          -169 -33 -23 -27 -69 hhcurveto
          -213 518 hlineto
          233 -8 229 -8 56 -37 54 -218 rlinecurve
          103 hlineto
          -1490 1 72 callsubr
          endchar
        </CharString>
        <CharString name="Ercyrillic">
          1476 1394 1005 49 callsubr
        </CharString>
        <CharString name="Ereversedcyrillic">
          1507 123 88 rmoveto
          -67 98 204 -53 198 hhcurveto
          439 350 289 479 473 -326 267 -463 -214 -184 -47 -64 -96 hvcurveto
          -10 -344 rlineto
          104 hlineto
          231 54 127 73 177 hhcurveto
          252 161 -197 -322 25 hvcurveto
          -592 5 0 -149 594 5 rlineto
          -329 -16 -177 -219 -247 hhcurveto
          -177 -131 68 244 -56 hvcurveto
          -103 hlineto
          endchar
        </CharString>
        <CharString name="Escyrillic">
          1479 95 717 -13 callsubr
          -36 callsubr
        </CharString>
        <CharString name="Etagreek">
          10 callsubr
          -63 callsubr
          -56 callsubr
          -60 callsubr
          endchar
        </CharString>
        <CharString name="Etatonosgreek">
          2130 959 230 rmoveto
          439 589 -439 vlineto
          -86 -16 -18 -137 -16 vhcurveto
          -110 674 110 vlineto
          -146 17 -20 18 90 vvcurveto
          974 vlineto
          90 20 18 146 67 callgsubr
          -410 -589 410 vlineto
          84 18 18 136 18 vhcurveto
          110 -674 -110 vlineto
          147 -17 -104 callsubr
          -18 -19 -147 -18 vhcurveto
          -110 674 -106 callgsubr
          -815 818 72 callsubr
          endchar
        </CharString>
        <CharString name="Etilde">
          1373 848 -33 callsubr
          -2 -19 213 callsubr
          399 -114 -92 callsubr
        </CharString>
        <CharString name="Etildebelow">
          1373 1247 1444 rmoveto
          -34 callsubr
          1232 vlineto
          -49 callsubr
          -37 callsubr
          -408 -1494 rmoveto
          109 -38 callgsubr
          -19 -33 -41 hhcurveto
          -27 -23 13 22 -31 hvcurveto
          -30 22 rlineto
          38 -54 -47 23 -61 hhcurveto
          -109 -84 -85 -218 hvcurveto
          -39 callgsubr
          23 -13 -23 31 hvcurveto
          30 -21 rlineto
          -38 54 47 -23 61 hhcurveto
          endchar
        </CharString>
        <CharString name="F">
          1284 1226 1444 rmoveto
          -1165 -81 callsubr
          -104 callsubr
          -105 callsubr
          -21 callsubr
          219 callsubr
        </CharString>
        <CharString name="Fdotaccent">
          1284 713 110 callsubr
          513 -129 rmoveto
          -1165 -81 callsubr
          -104 callsubr
          -105 callsubr
          -21 callsubr
          219 callsubr
        </CharString>
        <CharString name="G">
          1616 95 717 -19 callsubr
        </CharString>
        <CharString name="Gacute">
          1616 844 -85 callsubr
          -613 -843 -19 callsubr
        </CharString>
        <CharString name="Gammagreek">
          1268 1206 1444 rmoveto
          -1145 -81 callsubr
          -104 callsubr
          -105 callsubr
          -21 callsubr
          180 callsubr
        </CharString>
        <CharString name="Gbreve">
          1616 860 16 callsubr
          61 callsubr
          0 callsubr
          -765 -863 -19 callsubr
        </CharString>
        <CharString name="Gcaron">
          1616 1080 -54 callsubr
          70 callsubr
          -1119 -1150 -19 callsubr
        </CharString>
        <CharString name="Gcircumflex">
          1616 672 -66 callsubr
          -42 callsubr
          -442 -843 -19 callsubr
        </CharString>
        <CharString name="Gcommaaccent">
          1616 95 717 rmoveto
          -460 351 -289 439 218 212 53 76 120 vhcurveto
          388 vlineto
          85 15 18 140 15 vhcurveto
          110 -636 -110 vlineto
          156 -15 16 -18 -83 vvcurveto
          -319 vlineto
          -32 -45 -70 -17 -85 hhcurveto
          -265 -174 264 359 348 155 235 278 185 120 -89 -230 57 hvcurveto
          104 hlineto
          -10 362 rlineto
          66 -93 -182 42 -216 hhcurveto
          -459 -331 -290 -469 hvcurveto
          752 -1209 159 callsubr
        </CharString>
        <CharString name="Gdotaccent">
          1616 860 -72 callsubr
          60 81 81 -66 59 -82 -81 -67 -59 -81 -81 66 -60 82 hvcurveto
          -765 -856 -19 callsubr
        </CharString>
        <CharString name="Geacutecyrillic">
          1268 636 -85 callsubr
          706 -116 rmoveto
          -1145 -81 callsubr
          -104 callsubr
          -105 callsubr
          -21 callsubr
          180 callsubr
        </CharString>
        <CharString name="Gecyrillic">
          1268 1206 1444 rmoveto
          -1145 -81 callsubr
          -104 callsubr
          -105 callsubr
          -21 callsubr
          180 callsubr
        </CharString>
        <CharString name="Germandbls">
          1625 581 hmoveto
          1318 vlineto
          189 -7 rlineto
          263 -9 108 -100 -136 vvcurveto
          -124 -89 -75 -137 -17 vhcurveto
          -210 vlineto
          195 -47 120 -115 -165 vvcurveto
          -126 -70 -69 -102 -123 -87 105 179 -29 vhcurveto
          -104 -337 hlineto
          -51 67 131 -44 161 hhcurveto
          228 241 127 285 222 -129 173 -191 68 hvcurveto
          148 22 112 100 139 vvcurveto
          203 -184 135 -421 vhcurveto
          -817 -9 callsubr
          -974 -24 callsubr
          -110 vlineto
          endchar
        </CharString>
        <CharString name="Geupturncyrillic">
          1237 1176 1309 rmoveto
          8 443 rlineto
          -112 hlineto
          -284 -87 -38 -24 -187 hhcurveto
          -699 -81 callsubr
          -104 callsubr
          -105 callsubr
          -21 callsubr
          1059 vlineto
          endchar
        </CharString>
        <CharString name="Gmacron">
          1616 548 -67 callsubr
          -453 -1054 -19 callsubr
        </CharString>
        <CharString name="H">
          10 callsubr
          -63 callsubr
          -56 callsubr
          -60 callsubr
          endchar
        </CharString>
        <CharString name="Hacyrillic">
          1488 289 314 44 callsubr
        </CharString>
        <CharString name="Hardsigncyrillic">
          1703 1630 458 rmoveto
          277 -217 161 -369 vhcurveto
          -218 299 hlineto
          97 21 24 157 18 vhcurveto
          110 -946 vlineto
          -10 -392 rlineto
          104 hlineto
          45 224 57 30 217 7 rrcurveto
          -1071 vlineto
          -92 -21 -22 -153 -18 vhcurveto
          -110 759 vlineto
          373 201 203 255 hvcurveto
          -375 -9 rmoveto
          -191 -101 -118 -218 -7 vhcurveto
          -110 -3 rlineto
          631 98 vlineto
          204 127 -111 -201 hvcurveto
          endchar
        </CharString>
        <CharString name="Hbar">
          10 callsubr
          776 165 125 -165 73 19 callgsubr
          -78 -590 78 vlineto
          -15 callgsubr
          -73 -166 -125 166 -776 -101 callgsubr
          -60 callsubr
          574 vmoveto
          207 590 -207 vlineto
          endchar
        </CharString>
        <CharString name="Hbrevebelow">
          10 callsubr
          -63 callsubr
          -56 callsubr
          -60 callsubr
          297 -699 rmoveto
          156 callsubr
        </CharString>
        <CharString name="Hcaron">
          1752 1097 1866 rmoveto
          -204 -147 -203 147 -138 0 216 -307 248 0 216 307 rlineto
          -651 -1636 rmoveto
          439 590 -439 175 callsubr
          -63 callsubr
          -56 callsubr
          -60 callsubr
          endchar
        </CharString>
        <CharString name="Hcedilla">
          1752 354 -492 rmoveto
          -73 callgsubr
          83 95 rlineto
          263 110 hlineto
          -135 17 -19 18 85 vvcurveto
          439 590 -439 175 callsubr
          -63 callsubr
          -56 callsubr
          275 vlineto
          -115 -136 -44 callsubr
          51 -25 -50 -49 -48 -25 -66 -54 -54 -63 callgsubr
        </CharString>
        <CharString name="Hcircumflex">
          1752 689 1559 rmoveto
          205 148 203 -148 137 0 -216 308 -247 0 -216 -308 rlineto
          26 -1329 rmoveto
          439 590 -439 175 callsubr
          -63 callsubr
          -56 callsubr
          -60 callsubr
          endchar
        </CharString>
        <CharString name="Hdieresis">
          1752 690 1579 rmoveto
          78 62 58 78 79 -62 57 -78 -77 -63 -57 -79 -78 62 -58 78 hvcurveto
          376 hmoveto
          78 62 58 78 79 -62 57 -78 -78 -62 -57 -79 -78 62 -58 78 hvcurveto
          -485 -1349 rmoveto
          439 590 -439 175 callsubr
          -63 callsubr
          -56 callsubr
          -60 callsubr
          endchar
        </CharString>
        <CharString name="Hdotaccent">
          1752 878 -72 callsubr
          59 81 82 -66 59 -82 -82 -66 -59 -82 -81 66 -59 82 hvcurveto
          -297 -1343 rmoveto
          439 590 -439 175 callsubr
          -63 callsubr
          -56 callsubr
          -60 callsubr
          endchar
        </CharString>
        <CharString name="Hdotbelow">
          10 callsubr
          -63 callsubr
          -56 callsubr
          -60 callsubr
          297 -387 -78 callsubr
        </CharString>
        <CharString name="I">
          808 581 -40 callsubr
          -97 callsubr
          -98 callsubr
          -104 callsubr
          -105 callsubr
          -80 callsubr
        </CharString>
        <CharString name="IAcyrillic">
          1498 128 1009 rmoveto
          -191 128 -117 157 -41 vhcurveto
          -175 -300 -114 -191 -30 -41 -72 -24 rlinecurve
          -104 370 vlineto
          345 608 rlineto
          169 -378 hlineto
          -85 -16 -18 -137 -17 87 callsubr
          -145 17 -20 20 88 vvcurveto
          974 vlineto
          88 20 20 145 17 vhcurveto
          110 -750 vlineto
          -366 -182 -183 -252 hvcurveto
          360 22 rmoveto
          181 104 96 199 6 vhcurveto
          115 4 rlineto
          -582 -112 vlineto
          -177 1 -129 105 189 vvcurveto
          endchar
        </CharString>
        <CharString name="IJ">
          1616 581 -40 callsubr
          -97 callsubr
          -98 callsubr
          -104 callsubr
          -105 callsubr
          25 callsubr
          809 39 rmoveto
          935 vlineto
          88 17 20 -97 callsubr
          -98 callsubr
          18 -46 callgsubr
          -222 179 callsubr
        </CharString>
        <CharString name="IJacute">
          1616 388 -4 callsubr
          944 hmoveto
          93 callgsubr
          -478 -1325 -82 callsubr
          -97 callsubr
          -98 callsubr
          -104 callsubr
          -105 callsubr
          25 callsubr
          809 39 rmoveto
          935 vlineto
          88 17 20 -97 callsubr
          -98 callsubr
          18 -46 callgsubr
          -222 179 callsubr
        </CharString>
        <CharString name="IUcyrillic">
          2407 581 230 rmoveto
          439 202 vlineto
          -433 24 331 -268 405 hhcurveto
          466 303 326 430 hvcurveto
          463 1 -341 289 -421 hhcurveto
          -435 -293 -284 -388 -37 hvcurveto
          -205 410 hlineto
          -15 callgsubr
          -974 vlineto
          -88 -105 callsubr
          -60 callsubr
          977 -111 rmoveto
          -241 -144 272 348 336 108 250 257 239 145 -272 -348 hvcurveto
          -336 -1 -108 -250 -255 hhcurveto
          endchar
        </CharString>
        <CharString name="Iacute">
          808 388 -4 callsubr
          330 -1325 -82 callsubr
          -97 callsubr
          -98 callsubr
          -104 callsubr
          -105 callsubr
          -80 callsubr
        </CharString>
        <CharString name="Ibreve">
          808 404 16 callsubr
          61 callsubr
          0 callsubr
          177 -1345 -82 callsubr
          -97 callsubr
          -98 callsubr
          -104 callsubr
          -105 callsubr
          -80 callsubr
        </CharString>
        <CharString name="Icaron">
          808 624 -54 callsubr
          71 callsubr
          -177 -1632 -82 callsubr
          -97 callsubr
          -98 callsubr
          -104 callsubr
          -105 callsubr
          -80 callsubr
        </CharString>
        <CharString name="Icircumflex">
          808 215 65 callsubr
          81 callsubr
          500 -1325 -82 callsubr
          -97 callsubr
          -98 callsubr
          -104 callsubr
          -105 callsubr
          -80 callsubr
        </CharString>
        <CharString name="Icyrillic">
          808 581 -40 callsubr
          -97 callsubr
          -98 callsubr
          -104 callsubr
          -105 callsubr
          -80 callsubr
        </CharString>
        <CharString name="Idblgrave">
          808 222 -90 callgsubr
          -86 callgsubr
          -90 -1325 -82 callsubr
          -97 callsubr
          -98 callsubr
          -104 callsubr
          -105 callsubr
          -80 callsubr
        </CharString>
        <CharString name="Idieresis">
          808 217 62 callsubr
          -11 -1345 -82 callsubr
          -97 callsubr
          -98 callsubr
          -104 callsubr
          -105 callsubr
          -80 callsubr
        </CharString>
        <CharString name="Idieresisacute">
          808 740 -23 callsubr
          -672 -149 rlineto
          -91 vlineto
          163 -243 rmoveto
          31 callsubr
          66 callsubr
          64 49 40 56 56 -49 41 -64 hvcurveto
          -15 hlineto
          -63 -51 -41 -56 -56 51 -40 63 hvcurveto
          4 -1314 -82 callsubr
          -97 callsubr
          -98 callsubr
          -104 callsubr
          -105 callsubr
          -80 callsubr
        </CharString>
        <CharString name="Idotaccent">
          808 404 -72 callsubr
          -65 callsubr
          177 -1338 -82 callsubr
          -97 callsubr
          -98 callsubr
          -104 callsubr
          -105 callsubr
          -80 callsubr
        </CharString>
        <CharString name="Idotbelow">
          808 581 -40 callsubr
          -97 callsubr
          -98 callsubr
          -104 callsubr
          -105 callsubr
          25 callsubr
          -175 -392 -78 callsubr
        </CharString>
        <CharString name="Iecyrillic">
          1373 1247 1444 -92 callsubr
        </CharString>
        <CharString name="Igrave">
          808 449 121 callsubr
          486 -1622 -82 callsubr
          -97 callsubr
          -98 callsubr
          -104 callsubr
          -105 callsubr
          -80 callsubr
        </CharString>
        <CharString name="Ihookabove">
          808 438 -28 callsubr
          51 callsubr
          143 -1679 -82 callsubr
          -97 callsubr
          -98 callsubr
          -104 callsubr
          -105 callsubr
          -80 callsubr
        </CharString>
        <CharString name="Iicyrillic">
          1782 581 230 rmoveto
          22 vlineto
          620 740 rlineto
          -762 175 callsubr
          -63 callsubr
          -22 vlineto
          -620 -740 rlineto
          762 vlineto
          -15 callgsubr
          -974 vlineto
          -88 -105 callsubr
          -60 callsubr
          endchar
        </CharString>
        <CharString name="Iinvertedbreve">
          808 404 105 callsubr
          177 -1676 -82 callsubr
          -97 callsubr
          -98 callsubr
          -104 callsubr
          -105 callsubr
          -80 callsubr
        </CharString>
        <CharString name="Iishortcyrillic">
          1782 892 1573 rmoveto
          212 -85 callgsubr
          56 callgsubr
          -57 -52 -4 callgsubr
          -311 -1343 rmoveto
          22 vlineto
          620 740 rlineto
          -762 175 callsubr
          -63 callsubr
          -22 vlineto
          -620 -740 rlineto
          762 vlineto
          -15 callgsubr
          -974 vlineto
          -88 -105 callsubr
          -60 callsubr
          endchar
        </CharString>
        <CharString name="Imacron">
          808 92 -67 callsubr
          489 -1536 -82 callsubr
          -97 callsubr
          -98 callsubr
          -104 callsubr
          -105 callsubr
          -80 callsubr
        </CharString>
        <CharString name="Iocyrillic">
          1373 525 62 callsubr
          347 -136 -92 callsubr
        </CharString>
        <CharString name="Iogonek">
          808 581 -40 callsubr
          -97 callsubr
          -98 callsubr
          -104 callsubr
          -105 callsubr
          293 vlineto
          -94 -71 -74 -108 -107 -43 callgsubr
          43 vhcurveto
          30 callgsubr
          262 110 hlineto
          -148 17 -18 20 88 vvcurveto
          endchar
        </CharString>
        <CharString name="Iotadieresisgreek">
          808 217 62 callsubr
          -11 -1345 -82 callsubr
          -97 callsubr
          -98 callsubr
          -104 callsubr
          -105 callsubr
          -80 callsubr
        </CharString>
        <CharString name="Iotagreek">
          808 581 -40 callsubr
          -97 callsubr
          -98 callsubr
          -104 callsubr
          -105 callsubr
          -80 callsubr
        </CharString>
        <CharString name="Iotatonosgreek">
          1186 959 145 callsubr
          -685 -110 vlineto
          147 -17 -104 callsubr
          -18 -20 -147 -17 vhcurveto
          -110 685 110 vlineto
          -147 17 -18 20 88 vvcurveto
          -815 813 72 callsubr
          endchar
        </CharString>
        <CharString name="Itilde">
          808 540 -33 callsubr
          -2 -19 213 callsubr
          41 -1323 -82 callsubr
          -97 callsubr
          -98 callsubr
          -104 callsubr
          -105 callsubr
          -80 callsubr
        </CharString>
        <CharString name="Itildebelow">
          808 581 -40 callsubr
          -97 callsubr
          -98 callsubr
          -104 callsubr
          -105 callsubr
          25 callsubr
          -45 -682 rmoveto
          108 85 84 219 hvcurveto
          -117 hlineto
          -89 -3 -104 callgsubr
          166 callsubr
        </CharString>
        <CharString name="J">
          808 581 274 rmoveto
          935 35 callsubr
          80 callsubr
          106 callsubr
        </CharString>
        <CharString name="Jacute">
          808 387 -85 callsubr
          330 -1286 rmoveto
          935 35 callsubr
          80 callsubr
          106 callsubr
        </CharString>
        <CharString name="Jcircumflex">
          808 215 -66 callsubr
          -42 callsubr
          501 -1286 rmoveto
          935 35 callsubr
          80 callsubr
          106 callsubr
        </CharString>
        <CharString name="Jecyrillic">
          808 581 274 rmoveto
          935 35 callsubr
          80 callsubr
          106 callsubr
        </CharString>
        <CharString name="K">
          1522 581 230 22 callsubr
        </CharString>
        <CharString name="Kaacutecyrillic">
          1522 819 -85 callsubr
          -102 -1330 22 callsubr
        </CharString>
        <CharString name="Kacute">
          1522 819 -85 callsubr
          -102 -1330 22 callsubr
        </CharString>
        <CharString name="Kacyrillic">
          1522 581 230 22 callsubr
        </CharString>
        <CharString name="Kappagreek">
          1522 581 230 22 callsubr
        </CharString>
        <CharString name="Kcaron">
          1522 1055 1867 rmoveto
          -204 -148 -204 148 -137 0 216 -308 248 0 215 308 rlineto
          -608 -1637 22 callsubr
        </CharString>
        <CharString name="Kcommaaccent">
          165 callsubr
          243 -722 159 callsubr
        </CharString>
        <CharString name="Kdotbelow">
          165 callsubr
          270 -387 -35 callsubr
        </CharString>
        <CharString name="Klinebelow">
          165 callsubr
          -52 -608 -64 callsubr
        </CharString>
        <CharString name="L">
          18 callsubr
          endchar
        </CharString>
        <CharString name="Lacute">
          1271 389 -85 callsubr
          958 -1560 rmoveto
          -10 callsubr
          14 callsubr
          endchar
        </CharString>
        <CharString name="Lambdagreek">
          1541 1331 293 rmoveto
          -410 1151 -299 0 -414 -1153 -51 -142 -33 -25 -117 -14 rlinecurve
          -110 501 110 vlineto
          -160 19 -12 38 44 132 rrcurveto
          290 867 292 -876 45 -136 -37 -25 -139 -19 rlinecurve
          -110 704 110 vlineto
          -111 15 -39 18 -54 150 rrcurveto
          endchar
        </CharString>
        <CharString name="Lcaron">
          1271 1038 73 callgsubr
          284 -1148 rmoveto
          -10 callsubr
          14 callsubr
          endchar
        </CharString>
        <CharString name="Lcircumflexbelow">
          18 callsubr
          384 -476 -71 callgsubr
        </CharString>
        <CharString name="Lcommaaccent">
          18 callsubr
          565 -492 -50 callsubr
          -139 -88 -45 callsubr
          28 callsubr
          -93 callgsubr
        </CharString>
        <CharString name="Ldot">
          18 callsubr
          951 698 rmoveto
          96 77 69 96 96 -77 69 -96 -96 -78 -69 -96 -96 77 -69 97 hvcurveto
          endchar
        </CharString>
        <CharString name="Ldotbelow">
          18 callsubr
          591 -157 -35 callsubr
        </CharString>
        <CharString name="Ldotbelowmacron">
          1271 93 -67 callsubr
          1118 -1771 rmoveto
          -10 callsubr
          14 callsubr
          591 -157 -35 callsubr
        </CharString>
        <CharString name="Ljecyrillic">
          2193 13 callgsubr
          384 -1074 hlineto
          -90 -20 -18 -146 -17 vhcurveto
          -110 752 vlineto
          372 200 203 255 277 -216 161 -368 hvcurveto
          -219 299 hlineto
          97 21 24 156 18 vhcurveto
          110 -1263 228 callsubr
          1736 312 rmoveto
          -191 -99 -118 -218 -7 vhcurveto
          -111 -3 rlineto
          631 99 vlineto
          203 126 -111 -201 hvcurveto
          endchar
        </CharString>
        <CharString name="Llinebelow">
          18 callsubr
          269 -378 -64 callsubr
        </CharString>
        <CharString name="Lslash">
          1271 61 594 rmoveto
          166 44 rlineto
          -403 -101 callgsubr
          1150 vlineto
          -10 callsubr
          rrcurveto
          -184 -7 0 605 337 89 0 135 -337 -89 rlineto
          338 -16 callgsubr
          -436 vlineto
          -166 -44 rlineto
          endchar
        </CharString>
        <CharString name="M">
          1960 644 1444 47 callsubr
        </CharString>
        <CharString name="Macute">
          1960 965 -4 callsubr
          -184 -116 47 callsubr
        </CharString>
        <CharString name="Mdotaccent">
          1960 981 -72 callsubr
          -65 callsubr
          -337 -129 47 callsubr
        </CharString>
        <CharString name="Mdotbelow">
          1960 644 1444 rmoveto
          -580 -110 hlineto
          135 -17 21 -25 -3 -107 rrcurveto
          -20 -945 -3 -94 -16 -18 -135 -18 rlinecurve
          -110 475 110 vlineto
          -137 18 -17 19 -1 96 rrcurveto
          -1 948 421 -1191 201 0 100 327 299 866 20 -963 2 -86 -19 -18 -137 -16 rlinecurve
          -110 668 110 vlineto
          -146 17 -7 callgsubr
          -112 -588 rmoveto
          -77 callgsubr
          82 66 59 82 82 -65 58 -83 hvcurveto
          endchar
        </CharString>
        <CharString name="Mugreek">
          1960 644 1444 47 callsubr
        </CharString>
        <CharString name="N">
          1611 -30 callsubr
          -15 callsubr
          endchar
        </CharString>
        <CharString name="Nacute">
          1611 818 -4 callsubr
          -101 -116 -14 callsubr
          -15 callsubr
          endchar
        </CharString>
        <CharString name="Ncaron">
          1611 1054 -54 callsubr
          71 callsubr
          -608 -423 -14 callsubr
          -15 callsubr
          endchar
        </CharString>
        <CharString name="Ncircumflexbelow">
          1611 -30 callsubr
          -15 callsubr
          -695 -791 -5 callsubr
          122 callsubr
        </CharString>
        <CharString name="Ncommaaccent">
          1611 -30 callsubr
          -15 callsubr
          -515 -807 -50 callsubr
          -139 -88 -72 -26 -31 -30 hvcurveto
          -94 vlineto
          19 -83 callgsubr
          -46 -25 -69 -57 -92 callgsubr
        </CharString>
        <CharString name="Ndotaccent">
          1611 834 -72 callsubr
          -65 callsubr
          -254 -129 -14 callsubr
          -15 callsubr
          endchar
        </CharString>
        <CharString name="Ndotbelow">
          1611 -30 callsubr
          -15 callsubr
          -488 -472 -78 callsubr
        </CharString>
        <CharString name="Ngrave">
          1611 879 121 callsubr
          55 -413 -14 callsubr
          -15 callsubr
          endchar
        </CharString>
        <CharString name="Njecyrillic">
          2333 581 230 rmoveto
          479 520 -479 vlineto
          -85 -18 -18 -135 -17 vhcurveto
          -110 741 vlineto
          371 200 192 243 258 -215 151 -369 hvcurveto
          -220 351 79 callsubr
          -686 -110 vlineto
          135 -18 18 -18 -84 vvcurveto
          -370 -520 370 vlineto
          -15 callgsubr
          -974 vlineto
          -88 -105 callsubr
          -60 callsubr
          1304 194 rmoveto
          -176 -99 -108 -217 -7 vhcurveto
          -113 -3 rlineto
          579 101 vlineto
          202 126 -101 -184 hvcurveto
          endchar
        </CharString>
        <CharString name="Nlinebelow">
          1611 -30 callsubr
          -15 callsubr
          -811 -693 34 callsubr
        </CharString>
        <CharString name="Ntilde">
          1611 970 -33 callsubr
          -2 -19 213 callsubr
          -390 -114 -14 callsubr
          -15 callsubr
          endchar
        </CharString>
        <CharString name="Nugreek">
          1611 -30 callsubr
          -15 callsubr
          endchar
        </CharString>
        <CharString name="O">
          3 callsubr
          63 callsubr
          -101 callsubr
        </CharString>
        <CharString name="OE">
          2176 95 714 rmoveto
          -414 313 -332 452 vhcurveto
          164 101 32 144 hhcurveto
          827 hlineto
          -49 callsubr
          -59 -273 -50 -29 -251 -9 -235 -8 rcurveline
          548 209 vlineto
          70 24 -27 -170 30 hvcurveto
          97 520 -97 hlineto
          -170 -34 -22 -27 -68 hhcurveto
          -209 518 hlineto
          222 -8 228 -7 55 -38 54 -217 rlinecurve
          104 hlineto
          -9 396 rlineto
          -786 hlineto
          -140 -84 32 -165 hhcurveto
          -484 -309 -323 -439 hvcurveto
          378 7 rmoveto
          344 172 262 285 46 43 -6 -13 35 vhcurveto
          -1172 vlineto
          -13 -41 -48 -6 -50 hhcurveto
          -277 -165 259 345 hvcurveto
          endchar
        </CharString>
        <CharString name="Oacute">
          1734 848 -85 callsubr
          -617 -840 -102 callsubr
          -101 callsubr
        </CharString>
        <CharString name="Obreve">
          1734 864 16 callsubr
          -119 -6 hlineto
          -83 -76 -64 -125 -122 -78 64 83 vhcurveto
          6 -120 vlineto
          0 callsubr
          -769 -860 -102 callsubr
          -101 callsubr
        </CharString>
        <CharString name="Ocaron">
          1734 1084 -54 callsubr
          70 callsubr
          -1123 -1147 -102 callsubr
          -101 callsubr
        </CharString>
        <CharString name="Ocircumflex">
          1734 676 -66 callsubr
          -42 callsubr
          -446 -840 -102 callsubr
          -101 callsubr
        </CharString>
        <CharString name="Ocircumflexacute">
          1734 1200 33 callgsubr
          336 -89 0 94 -301 148 -70 0 -299 -148 rlineto
          -435 -865 -102 callsubr
          -101 callsubr
        </CharString>
        <CharString name="Ocircumflexdotbelow">
          1734 676 -66 callsubr
          -42 callsubr
          -446 -840 -102 callsubr
          458 -344 131 callsubr
          138 callsubr
          107 callsubr
          384 -896 -78 callsubr
        </CharString>
        <CharString name="Ocircumflexgrave">
          1734 528 167 callsubr
          336 -89 0 94 -301 148 -70 0 -299 -148 rlineto
          -435 -865 -102 callsubr
          -101 callsubr
        </CharString>
        <CharString name="Ocircumflexhookabove">
          1734 1141 1983 rmoveto
          -81 -78 -26 -31 -46 hvcurveto
          -73 vlineto
          14 31 55 12 49 hhcurveto
          74 38 -23 -33 -33 -37 -23 -88 -18 hvcurveto
          93 -56 rlineto
          132 28 80 47 83 vvcurveto
          83 -98 49 -124 vhcurveto
          -612 -492 rmoveto
          335 89 336 -89 0 94 -301 148 -70 0 -299 -148 rlineto
          -435 -865 -102 callsubr
          -101 callsubr
        </CharString>
        <CharString name="Ocircumflextilde">
          1734 1002 -49 callgsubr
          -126 hlineto
          -43 -26 -20 -43 -26 -29 7 12 -37 vhcurveto
          -37 12 rlineto
          16 -48 -47 11 -54 hhcurveto
          -117 -81 -70 -98 callgsubr
          42 27 28 -7 -12 37 vhcurveto
          187 callsubr
          336 -89 0 94 -301 148 -70 0 -299 -148 rlineto
          -435 -865 -102 callsubr
          -101 callsubr
        </CharString>
        <CharString name="Ocyrillic">
          3 callsubr
          63 callsubr
          -101 callsubr
        </CharString>
        <CharString name="Odblgrave">
          1734 683 -28 callgsubr
          -1036 -840 -102 callsubr
          -101 callsubr
        </CharString>
        <CharString name="Odieresis">
          1734 677 67 callsubr
          -62 42 callsubr
          139 callsubr
          -957 -860 -102 callsubr
          -101 callsubr
        </CharString>
        <CharString name="Odieresismacron">
          1734 528 184 callsubr
          51 40 56 56 32 callsubr
          76 callsubr
          50 40 56 56 -50 41 -64 hvcurveto
          -15 30 callsubr
          -942 -829 -102 callsubr
          -101 callsubr
        </CharString>
        <CharString name="Odotaccent">
          1734 864 168 callsubr
          -769 -853 -102 callsubr
          -101 callsubr
        </CharString>
        <CharString name="Odotaccentmacron">
          1734 528 1822 88 callsubr
          336 -412 rmoveto
          70 55 46 62 63 -55 45 -70 -69 -55 -45 -63 -62 55 -46 69 hvcurveto
          -769 -817 -102 callsubr
          -101 callsubr
        </CharString>
        <CharString name="Odotbelow">
          3 callsubr
          63 callsubr
          458 -344 131 callsubr
          138 callsubr
          107 callsubr
          384 -896 -78 callsubr
        </CharString>
        <CharString name="Ograve">
          1734 910 20 callsubr
          -461 -1137 -102 callsubr
          -101 callsubr
        </CharString>
        <CharString name="Ohookabove">
          1734 898 -28 callsubr
          51 callsubr
          -803 -1194 -102 callsubr
          -101 callsubr
        </CharString>
        <CharString name="Ohorn">
          1770 95 720 -102 callsubr
          46 callsubr
        </CharString>
        <CharString name="Ohornacute">
          1770 854 -85 callsubr
          -623 -840 -102 callsubr
          46 callsubr
        </CharString>
        <CharString name="Ohorndotbelow">
          1770 95 720 -102 callsubr
          281 -136 231 -204 126 vhcurveto
          -6 29 31 -3 31 hhcurveto
          174 120 64 137 1 hvcurveto
          1 103 -77 100 -96 58 rrcurveto
          -109 hlineto
          22 -29 16 -63 -53 vvcurveto
          -126 -1 -67 -93 -145 -103 -114 25 -144 -70 callgsubr
          107 callsubr
          379 -896 -78 callsubr
        </CharString>
        <CharString name="Ohorngrave">
          1770 916 20 callsubr
          -467 -1137 -102 callsubr
          46 callsubr
        </CharString>
        <CharString name="Ohornhookabove">
          1770 904 -28 callsubr
          -44 hvcurveto
          -81 vlineto
          18 28 50 15 54 -6 callgsubr
          -809 -1194 -102 callsubr
          46 callsubr
        </CharString>
        <CharString name="Ohorntilde">
          1770 1006 1558 rmoveto
          113 89 87 229 hvcurveto
          -126 hlineto
          -92 -2 -19 -34 -42 hhcurveto
          -28 -23 14 23 -33 hvcurveto
          -31 22 rlineto
          39 -56 -49 23 -63 hhcurveto
          51 callgsubr
          -67 callgsubr
          -911 -838 -102 callsubr
          46 callsubr
        </CharString>
        <CharString name="Ohungarumlaut">
          1734 680 -31 callgsubr
          -1279 -1147 -102 callsubr
          -101 callsubr
        </CharString>
        <CharString name="Oinvertedbreve">
          1734 864 1911 rmoveto
          -207 -118 -129 -146 -20 2 -20 3 -16 hvcurveto
          120 6 hlineto
          84 76 64 124 123 78 -64 -84 vhcurveto
          -6 119 vlineto
          4 17 1 -53 callgsubr
          -769 -1191 -102 callsubr
          -101 callsubr
        </CharString>
        <CharString name="Omacron">
          1734 552 -67 callsubr
          -457 -1051 -102 callsubr
          -101 callsubr
        </CharString>
        <CharString name="Omacronacute">
          1734 1200 -23 callsubr
          38 callsubr
          -1 -210 88 callsubr
          -433 -989 -102 callsubr
          -101 callsubr
        </CharString>
        <CharString name="Omacrongrave">
          1734 528 126 callsubr
          -42 callgsubr
          -433 -989 -102 callsubr
          -101 callsubr
        </CharString>
        <CharString name="Omegagreek">
          1606 80 hmoveto
          632 372 hlineto
          -198 65 -102 163 264 vvcurveto
          304 158 160 227 237 161 28 callgsubr
          50 395 rlineto
          -88 hlineto
          -64 -154 -170 -44 -231 -5 rrcurveto
          99 vlineto
          287 64 callgsubr
          -470 -279 57 callgsubr
          -230 5 -168 41 -69 157 rrcurveto
          -88 hlineto
          endchar
        </CharString>
        <CharString name="Omegatonosgreek">
          1834 307 hmoveto
          633 372 hlineto
          -199 65 -101 163 264 vvcurveto
          304 158 160 227 236 162 28 callgsubr
          49 395 rlineto
          -87 hlineto
          -65 -154 -170 -44 -231 -5 rrcurveto
          99 vlineto
          288 64 callgsubr
          -471 -278 57 callgsubr
          -231 5 -167 41 -69 157 rrcurveto
          -88 hlineto
          -113 653 72 callsubr
          endchar
        </CharString>
        <CharString name="Omicrongreek">
          3 callsubr
          63 callsubr
          -101 callsubr
        </CharString>
        <CharString name="Omicrontonosgreek">
          1890 250 720 rmoveto
          -458 344 -294 427 469 306 330 426 458 -345 131 callsubr
          -106 328 72 callsubr
          642 -309 rmoveto
          332 110 254 262 107 callsubr
          endchar
        </CharString>
        <CharString name="Oogonek">
          3 callsubr
          -435 309 -286 396 -29 vhcurveto
          -85 -68 -64 -95 -93 -43 callgsubr
          44 vhcurveto
          107 vlineto
          -13 -16 -28 -9 -30 hhcurveto
          -67 -58 68 104 45 11 44 18 32 hvcurveto
          426 34 272 317 402 vvcurveto
          -101 callsubr
        </CharString>
        <CharString name="Oogonekmacron">
          1734 552 -67 callsubr
          -457 -1051 rmoveto
          -435 309 -286 396 -29 vhcurveto
          -85 -68 -64 -95 -93 -43 callgsubr
          44 vhcurveto
          107 vlineto
          -13 -16 -28 -9 -30 hhcurveto
          -67 -58 68 104 45 11 44 18 32 hvcurveto
          426 34 272 317 402 vvcurveto
          -101 callsubr
        </CharString>
        <CharString name="Oslash">
          3 callsubr
          189 callsubr
        </CharString>
        <CharString name="Oslashacute">
          1734 848 -85 callsubr
          -617 -840 rmoveto
          189 callsubr
        </CharString>
        <CharString name="Otilde">
          1734 1000 -33 callsubr
          169 callsubr
          -19 callgsubr
          -905 -838 -102 callsubr
          -101 callsubr
        </CharString>
        <CharString name="Otildeacute">
          1734 1200 -23 callsubr
          38 callsubr
          473 -243 2 callsubr
          99 callsubr
          -907 -829 -102 callsubr
          -101 callsubr
        </CharString>
        <CharString name="Otildedieresis">
          1734 691 220 callsubr
          -35 -266 2 callsubr
          99 callsubr
          -907 -829 -102 callsubr
          -101 callsubr
        </CharString>
        <CharString name="Otildemacron">
          1734 528 1848 88 callsubr
          474 -426 2 callsubr
          99 callsubr
          -907 -829 -102 callsubr
          -101 callsubr
        </CharString>
        <CharString name="P">
          1476 1394 1005 49 callsubr
        </CharString>
        <CharString name="Pacute">
          1476 708 -85 callsubr
          822 -555 49 callsubr
        </CharString>
        <CharString name="Pdotaccent">
          1476 725 -72 callsubr
          -65 callsubr
          669 -568 49 callsubr
        </CharString>
        <CharString name="Pecyrillic">
          1742 1515 145 callsubr
          -1619 -70 callsubr
          -104 callsubr
          -105 callsubr
          -60 callsubr
          1079 579 -1079 vlineto
          -85 -19 -18 -134 -17 87 callsubr
          -88 callgsubr
        </CharString>
        <CharString name="Phigreek">
          1938 76 717 rmoveto
          -317 269 -164 457 -13 vhcurveto
          -5 -75 -31 -22 -140 -16 rrcurveto
          -110 686 110 vlineto
          -140 16 -32 22 -5 75 rrcurveto
          445 13 282 170 315 vvcurveto
          321 -289 162 -438 13 vhcurveto
          4 79 30 21 143 17 rrcurveto
          110 -686 -110 vlineto
          143 -17 30 -21 3 -79 rrcurveto
          -426 -14 -300 -166 -320 vvcurveto
          1427 4 rmoveto
          -225 -146 -124 -222 -18 vhcurveto
          733 vlineto
          235 -18 133 -125 -223 vvcurveto
          -1068 4 rmoveto
          217 139 126 229 19 vhcurveto
          -733 vlineto
          -226 18 -142 122 231 vvcurveto
          endchar
        </CharString>
        <CharString name="Pigreek">
          1712 1486 145 callsubr
          -1590 -70 callsubr
          -104 callsubr
          -105 callsubr
          -60 callsubr
          1079 550 -1079 vlineto
          -85 -19 -18 -134 -17 87 callsubr
          -88 callgsubr
        </CharString>
        <CharString name="Psigreek">
          1877 1104 250 rmoveto
          225 vlineto
          342 19 167 137 52 337 rrcurveto
          31 199 18 119 31 30 98 6 rlinecurve
          110 vlineto
          5 -32 -65 7 -60 hhcurveto
          -173 -83 -65 -206 -33 hvcurveto
          -32 -206 -36 -223 -60 -105 -165 -26 rlinecurve
          601 vlineto
          86 19 17 135 17 vhcurveto
          110 -638 -110 vlineto
          134 -17 19 -17 -86 vvcurveto
          -601 vlineto
          -165 26 -60 105 -36 223 -33 206 rcurveline
          206 -32 -83 65 -173 hhcurveto
          -60 -65 -7 -5 -33 hvcurveto
          -110 vlineto
          99 -6 30 -30 19 -119 rrcurveto
          31 -199 52 -337 167 -137 342 -19 rlinecurve
          -225 vlineto
          -97 -22 -25 -155 -18 vhcurveto
          -110 686 -52 callsubr
          endchar
        </CharString>
        <CharString name="Q">
          3 callsubr
          -424 293 -283 380 -40 vhcurveto
          156 -147 rlineto
          -179 197 105 -38 151 hhcurveto
          108 111 23 39 82 hvcurveto
          100 vlineto
          -125 -9 -105 47 -186 154 -77 64 rcurveline
          284 113 171 265 319 vvcurveto
          458 -343 294 -425 -471 -306 -330 -426 vhcurveto
          392 19 rmoveto
          332 110 254 260 244 147 -276 -344 vhcurveto
          -332 -1 -109 -254 -261 hhcurveto
          -244 -146 276 344 hvcurveto
          endchar
        </CharString>
        <CharString name="R">
          1484 1373 1047 12 callsubr
        </CharString>
        <CharString name="Racute">
          1484 701 -4 callsubr
          809 -513 12 callsubr
        </CharString>
        <CharString name="Rcaron">
          1484 937 -54 callsubr
          71 callsubr
          302 -820 12 callsubr
        </CharString>
        <CharString name="Rcommaaccent">
          157 callsubr
          -224 -1516 -50 callsubr
          -139 -88 -45 callsubr
          28 callsubr
          -47 -25 -68 -57 -92 callgsubr
        </CharString>
        <CharString name="Rdblgrave">
          1484 535 -90 callgsubr
          -86 callgsubr
          389 -513 12 callsubr
        </CharString>
        <CharString name="Rdotaccent">
          1484 717 -72 callsubr
          -65 callsubr
          656 -526 12 callsubr
        </CharString>
        <CharString name="Rdotbelow">
          157 callsubr
          -197 -1181 -78 callsubr
        </CharString>
        <CharString name="Rdotbelowmacron">
          1484 405 -67 callsubr
          968 -724 rmoveto
          242 -1 -194 155 -406 hhcurveto
          -711 -81 callsubr
          -104 callsubr
          -105 callsubr
          -60 callsubr
          151 callsubr
          -197 -1181 -78 callsubr
        </CharString>
        <CharString name="Rhogreek">
          1476 1394 1005 49 callsubr
        </CharString>
        <CharString name="Rinvertedbreve">
          1484 717 105 callsubr
          656 -864 12 callsubr
        </CharString>
        <CharString name="Rlinebelow">
          157 callsubr
          -520 -1402 34 callsubr
        </CharString>
        <CharString name="S">
          1309 618 -32 96 callsubr
          endchar
        </CharString>
        <CharString name="Sacute">
          1309 674 -85 callsubr
          80 -1592 96 callsubr
          endchar
        </CharString>
        <CharString name="Sacutedotaccent">
          1309 691 1772 44 callgsubr
          336 -156 -107 callgsubr
          263 -1566 96 callsubr
          endchar
        </CharString>
        <CharString name="Scaron">
          1309 910 1867 rmoveto
          -204 -148 -203 148 -138 0 216 -308 248 0 215 308 rlineto
          -426 -1899 96 callsubr
          endchar
        </CharString>
        <CharString name="Scarondotaccent">
          1309 691 1794 44 callgsubr
          343 -11 rmoveto
          -343 -89 -343 89 0 -93 308 -149 72 0 307 149 rlineto
          -417 -1722 96 callsubr
          endchar
        </CharString>
        <CharString name="Scedilla">
          1309 601 -492 rmoveto
          -73 callgsubr
          58 66 rlineto
          294 23 228 160 270 vvcurveto
          215 -125 144 -281 87 vhcurveto
          -124 38 rlineto
          -155 47 -81 62 110 vvcurveto
          116 86 82 167 176 129 -98 -206 41 vhcurveto
          104 hlineto
          -10 344 rlineto
          211 callsubr
          90 -61 169 -49 186 -9 -89 -106 rcurveline
          -88 vlineto
          2 8 18 2 15 hhcurveto
          73 51 -24 -51 -49 -49 -25 -65 41 callsubr
        </CharString>
        <CharString name="Schwa">
          1548 716 -32 rmoveto
          438 300 285 460 492 -304 270 -459 -223 -201 -41 -66 -98 hvcurveto
          -11 -362 rlineto
          104 hlineto
          220 57 128 99 208 hhcurveto
          270 146 -211 -401 3 hvcurveto
          -994 hlineto
          -6 -35 -6 -45 -44 vvcurveto
          -366 220 -255 428 vhcurveto
          -308 596 rmoveto
          7 0 6 6 vvcurveto
          661 hlineto
          -307 -24 -124 -157 -199 hhcurveto
          -224 -90 188 257 hvcurveto
          endchar
        </CharString>
        <CharString name="Scircumflex">
          1309 502 -66 callsubr
          -42 callsubr
          251 -1592 96 callsubr
          endchar
        </CharString>
        <CharString name="Scommaaccent">
          1309 618 -32 96 callsubr
          -6 -460 -102 callgsubr
          -98 146 callsubr
          19 -83 callgsubr
          115 callsubr
        </CharString>
        <CharString name="Sdotaccent">
          1309 691 110 callsubr
          -73 -1605 96 callsubr
          endchar
        </CharString>
        <CharString name="Sdotbelow">
          1309 618 -32 96 callsubr
          12 callgsubr
        </CharString>
        <CharString name="Sdotbelowdotaccent">
          1309 691 110 callsubr
          -73 -1605 96 callsubr
          12 callgsubr
        </CharString>
        <CharString name="Shacyrillic">
          2480 2253 145 callsubr
          -674 -110 vlineto
          136 133 callsubr
          18 17 136 18 vhcurveto
          110 -662 -110 vlineto
          135 133 callsubr
          19 17 135 18 vhcurveto
          110 -674 -70 callsubr
          -104 callsubr
          -105 callsubr
          2357 110 vlineto
          -88 callgsubr
        </CharString>
        <CharString name="Shchacyrillic">
          2507 2454 53 callgsubr
          -674 -110 vlineto
          136 133 callsubr
          18 17 136 18 vhcurveto
          110 -662 -110 vlineto
          135 133 callsubr
          19 17 135 18 vhcurveto
          110 -674 -70 callsubr
          -104 callsubr
          -105 callsubr
          1976 vlineto
          187 38 -24 -284 87 hvcurveto
          113 hlineto
          endchar
        </CharString>
        <CharString name="Sigmagreek">
          1319 1191 1444 rmoveto
          -1139 -104 hlineto
          473 -639 -473 -524 rlineto
          -177 1175 vlineto
          13 516 rlineto
          -119 hlineto
          -244 -52 -62 -33 -253 hhcurveto
          -464 hlineto
          528 535 0 35 -363 510 309 -10 235 -7 44 -47 53 -203 rlinecurve
          104 hlineto
          endchar
        </CharString>
        <CharString name="Softsigncyrillic">
          1459 1385 458 rmoveto
          277 -216 161 -369 vhcurveto
          -219 299 79 callsubr
          -698 -70 callsubr
          -104 callsubr
          -18 -20 36 callgsubr
          -375 -9 -10 callgsubr
        </CharString>
        <CharString name="T">
          -17 callsubr
          endchar
        </CharString>
        <CharString name="Taugreek">
          -17 callsubr
          endchar
        </CharString>
        <CharString name="Tbar">
          1438 246 677 rmoveto
          295 -428 hlineto
          -97 -21 -24 -156 -19 vhcurveto
          -109 710 109 vlineto
          -156 19 -22 24 97 vvcurveto
          428 296 126 -296 514 vlineto
          49 -1 241 -8 56 -33 44 -228 rlinecurve
          104 hlineto
          -10 397 -1322 0 -10 -397 rlineto
          104 hlineto
          82 callsubr
          1 rcurveline
          -514 -295 vlineto
          endchar
        </CharString>
        <CharString name="Tcaron">
          1438 938 142 callsubr
          307 -423 rmoveto
          -1322 hlineto
          -10 -397 rlineto
          104 hlineto
          82 callsubr
          -94 callgsubr
          710 -52 callsubr
          1068 130 callsubr
          endchar
        </CharString>
        <CharString name="Tcedilla">
          1438 681 -492 rmoveto
          151 137 67 130 131 -114 67 -138 2 hvcurveto
          82 95 rlineto
          275 110 hlineto
          -156 18 -22 25 97 vvcurveto
          1068 130 callsubr
          -10 397 -1322 0 -10 -397 rlineto
          104 hlineto
          82 callsubr
          -94 callgsubr
          299 vlineto
          -115 -136 rlineto
          -88 vlineto
          2 8 18 2 15 hhcurveto
          74 50 -25 -50 -49 -48 -25 -65 -55 -54 -63 callgsubr
        </CharString>
        <CharString name="Tcircumflexbelow">
          -17 callsubr
          -878 -1523 -5 callsubr
          130 -81 callgsubr
        </CharString>
        <CharString name="Tcommaaccent">
          -17 callsubr
          -698 -1539 -102 callgsubr
          -98 146 callsubr
          19 -83 callgsubr
          115 callsubr
        </CharString>
        <CharString name="Tdotaccent">
          1438 719 -72 callsubr
          -47 callgsubr
          65 -60 83 hvcurveto
          661 -129 rmoveto
          -1322 hlineto
          -10 -397 rlineto
          104 hlineto
          82 callsubr
          -94 callgsubr
          710 -52 callsubr
          1068 130 callsubr
          endchar
        </CharString>
        <CharString name="Tdotbelow">
          -17 callsubr
          -671 -1204 rmoveto
          -83 -65 -58 -82 -82 65 -59 83 81 67 59 82 82 -66 58 -82 hvcurveto
          endchar
        </CharString>
        <CharString name="Tecyrillic">
          -17 callsubr
          endchar
        </CharString>
        <CharString name="Thetagreek">
          1744 868 -32 rmoveto
          474 309 330 426 458 -347 294 -428 -474 -309 -330 -426 -458 347 -294 428 hvcurveto
          15 136 rmoveto
          -266 -158 275 360 349 122 252 281 266 157 -275 -360 -351 -121 -250 -281 hvcurveto
          -288 355 rmoveto
          86 hlineto
          148 24 31 26 87 hhcurveto
          94 hlineto
          86 32 -26 -148 24 hvcurveto
          87 501 -87 hlineto
          -147 -24 -32 -28 -86 hhcurveto
          -94 hlineto
          -87 -31 28 147 -24 hvcurveto
          -86 hlineto
          endchar
        </CharString>
        <CharString name="Thorn">
          1450 1383 740 rmoveto
          276 -244 120 -379 vhcurveto
          -179 59 79 callsubr
          -698 -70 callsubr
          18 -20 -87 vvcurveto
          -976 vlineto
          -87 -105 callsubr
          -21 callsubr
          69 179 vlineto
          368 1 255 144 276 vvcurveto
          -374 -20 rmoveto
          -177 -125 -88 -224 -7 vhcurveto
          -79 -2 0 563 79 -3 rlineto
          229 -6 120 -103 -177 vvcurveto
          endchar
        </CharString>
        <CharString name="Tlinebelow">
          -17 callsubr
          -994 -1425 -64 callsubr
        </CharString>
        <CharString name="Tsecyrillic">
          1770 1716 53 callgsubr
          -673 -110 vlineto
          134 -18 19 -18 -84 vvcurveto
          -1079 -579 1079 vlineto
          -15 callgsubr
          -974 vlineto
          -88 -105 callsubr
          1239 vlineto
          187 38 -24 -284 86 hvcurveto
          113 hlineto
          endchar
        </CharString>
        <CharString name="Tshecyrillic">
          1915 216 callsubr
          380 vlineto
          32 52 84 19 95 hhcurveto
          175 94 -94 -195 hvcurveto
          -377 509 -106 callgsubr
          167 vlineto
          322 -203 120 -284 -161 -132 -39 -45 -75 vhcurveto
          560 85 callgsubr
        </CharString>
        <CharString name="U">
          1611 192 1214 -89 callsubr
        </CharString>
        <CharString name="Uacute">
          1611 852 -85 callsubr
          -524 -346 -89 callsubr
        </CharString>
        <CharString name="Ubreve">
          1611 868 16 callsubr
          -120 -6 hlineto
          -83 -75 -64 -125 -122 -78 64 83 vhcurveto
          6 -120 vlineto
          0 callsubr
          -676 -366 -89 callsubr
        </CharString>
        <CharString name="Ubrevecyrillic">
          1514 827 1573 rmoveto
          213 -85 callgsubr
          -79 -74 -52 -54 -68 -40 19 -36 30 -14 callgsubr
          144 -99 212 vhcurveto
          -580 -1439 196 callsubr
        </CharString>
        <CharString name="Ucaron">
          1611 1088 -54 callsubr
          70 callsubr
          -1030 -653 -89 callsubr
        </CharString>
        <CharString name="Ucircumflex">
          1611 680 -66 callsubr
          -42 callsubr
          -353 -346 -89 callsubr
        </CharString>
        <CharString name="Ucircumflexbelow">
          91 callsubr
          445 -1690 -5 callsubr
          122 callsubr
        </CharString>
        <CharString name="Ucyrillic">
          1514 247 134 196 callsubr
        </CharString>
        <CharString name="Udblgrave">
          1611 687 -28 callgsubr
          -943 -346 -89 callsubr
        </CharString>
        <CharString name="Udieresis">
          1611 681 67 callsubr
          -62 42 callsubr
          139 callsubr
          -864 -366 -89 callsubr
        </CharString>
        <CharString name="Udieresisacute">
          1611 1204 -23 callsubr
          38 callsubr
          162 -243 rmoveto
          63 51 40 56 56 32 callsubr
          76 callsubr
          50 40 56 56 -50 41 -64 hvcurveto
          -15 30 callsubr
          -849 -335 -89 callsubr
        </CharString>
        <CharString name="Udieresisbelow">
          91 callsubr
          418 -1651 rmoveto
          119 callsubr
          468 hmoveto
          85 67 58 82 81 -67 58 -85 -83 -68 -58 -81 -82 67 -58 84 hvcurveto
          endchar
        </CharString>
        <CharString name="Udieresiscaron">
          1611 1204 2029 rmoveto
          -336 11 callgsubr
          51 40 56 56 32 callsubr
          76 callsubr
          50 40 56 56 -50 41 -64 hvcurveto
          -15 30 callsubr
          -849 -335 -89 callsubr
        </CharString>
        <CharString name="Udieresisgrave">
          1611 532 126 callsubr
          163 -483 rmoveto
          63 51 40 56 56 32 callsubr
          76 callsubr
          50 40 56 56 -50 41 -64 hvcurveto
          -15 30 callsubr
          -849 -335 -89 callsubr
        </CharString>
        <CharString name="Udieresismacron">
          1611 532 184 callsubr
          51 40 56 56 32 callsubr
          76 callsubr
          50 40 56 56 -50 41 -64 hvcurveto
          -15 30 callsubr
          -849 -335 -89 callsubr
        </CharString>
        <CharString name="Udotbelow">
          91 callsubr
          652 -1371 -78 callsubr
        </CharString>
        <CharString name="Ugrave">
          1611 914 20 callsubr
          -368 -643 -89 callsubr
        </CharString>
        <CharString name="Uhookabove">
          1611 902 -28 callsubr
          51 callsubr
          -710 -700 -89 callsubr
        </CharString>
        <CharString name="Uhorn">
          1739 191 539 45 callsubr
        </CharString>
        <CharString name="Uhornacute">
          1739 864 -85 callsubr
          -537 -1021 45 callsubr
        </CharString>
        <CharString name="Uhorndotbelow">
          1739 191 539 rmoveto
          -374 281 -197 329 360 249 226 369 3 vhcurveto
          7 805 rlineto
          -1 11 11 -1 10 hhcurveto
          168 98 71 123 103 -72 96 -92 56 hvcurveto
          -109 hlineto
          23 -29 15 -61 -56 vvcurveto
          -120 -1 -75 -105 -192 hhcurveto
          -135 -110 hlineto
          157 -23 16 -18 -90 vvcurveto
          4 -626 rlineto
          -265 2 -130 -130 -218 hhcurveto
          -210 -155 132 249 hvcurveto
          640 vlineto
          90 20 18 153 23 vhcurveto
          110 -683 -110 vlineto
          135 -22 20 -19 -90 vvcurveto
          643 -1360 -35 callsubr
        </CharString>
        <CharString name="Uhorngrave">
          1739 926 20 callsubr
          -381 -1318 45 callsubr
        </CharString>
        <CharString name="Uhornhookabove">
          1739 915 -28 callsubr
          -45 hvcurveto
          -81 vlineto
          18 28 51 15 53 hhcurveto
          69 39 -26 -43 -43 -38 -39 -98 -63 hvcurveto
          114 hlineto
          168 64 62 58 76 vvcurveto
          88 -84 61 -124 vhcurveto
          -724 -1375 45 callsubr
        </CharString>
        <CharString name="Uhorntilde">
          1739 1017 -33 callsubr
          -3 -18 213 callsubr
          -826 -1019 45 callsubr
        </CharString>
        <CharString name="Uhungarumlaut">
          1611 684 -31 callgsubr
          -1186 -653 -89 callsubr
        </CharString>
        <CharString name="Uinvertedbreve">
          1611 868 105 callsubr
          -676 -697 -89 callsubr
        </CharString>
        <CharString name="Umacron">
          1611 556 -67 callsubr
          -364 -557 -89 callsubr
        </CharString>
        <CharString name="Umacrondieresis">
          1611 695 220 callsubr
          -484 -233 rmoveto
          623 127 -623 hlineto
          -365 -495 -89 callsubr
        </CharString>
        <CharString name="Uogonek">
          1611 857 -492 rmoveto
          98 86 34 51 43 hvcurveto
          107 vlineto
          -13 -15 -27 -9 -31 hhcurveto
          -67 -59 68 104 48 13 45 19 33 hvcurveto
          306 44 188 217 3 326 5 643 rcurveline
          90 19 20 135 18 vhcurveto
          110 -484 -70 callsubr
          18 -21 -95 vvcurveto
          4 -609 rlineto
          226 callsubr
          -675 vlineto
          -363 263 -196 316 -11 vhcurveto
          -85 -68 -62 -94 -93 vvcurveto
          -127 101 -79 132 vhcurveto
          endchar
        </CharString>
        <CharString name="Upsilondieresisgreek">
          1462 627 1580 rmoveto
          132 callsubr
          63 -57 77 141 callsubr
          -77 -63 42 callsubr
          -776 -430 -71 callsubr
          -62 callsubr
        </CharString>
        <CharString name="Upsilongreek">
          1462 227 1150 -71 callsubr
          -62 callsubr
        </CharString>
        <CharString name="Upsilontonosgreek">
          1878 643 1150 -71 callsubr
          83 137 29 24 118 16 -76 callgsubr
          152 -17 8 -32 -73 -132 rrcurveto
          -226 -404 -233 404 -75 163 callsubr
          -499 -102 72 callsubr
          endchar
        </CharString>
        <CharString name="Uring">
          1611 584 1761 rmoveto
          -123 122 -84 162 163 122 84 123 122 -122 85 -163 -162 -122 -84 -123 vhcurveto
          188 hmoveto
          62 42 41 54 53 42 -41 -62 -62 -42 -41 -53 -54 -42 41 62 vhcurveto
          -580 -547 -89 callsubr
        </CharString>
        <CharString name="Utilde">
          1611 1004 -33 callsubr
          169 callsubr
          -19 callgsubr
          -812 -344 -89 callsubr
        </CharString>
        <CharString name="Utildeacute">
          1611 1204 -23 callsubr
          38 callsubr
          473 -243 2 callsubr
          99 callsubr
          -814 -335 -89 callsubr
        </CharString>
        <CharString name="Utildebelow">
          91 callsubr
          782 -1661 rmoveto
          108 85 84 219 hvcurveto
          -41 callgsubr
          166 callsubr
        </CharString>
        <CharString name="V">
          89 callgsubr
          endchar
        </CharString>
        <CharString name="Vdotbelow">
          89 callgsubr
          569 -1293 -78 callsubr
        </CharString>
        <CharString name="Vecyrillic">
          1512 1430 428 97 callsubr
        </CharString>
        <CharString name="Vtilde">
          1526 962 -33 callsubr
          169 callsubr
          51 callgsubr
          -67 callgsubr
          -758 -422 rmoveto
          205 callsubr
          endchar
        </CharString>
        <CharString name="W">
          2315 198 1136 11 callsubr
        </CharString>
        <CharString name="Wacute">
          2315 1243 -85 callsubr
          -909 -424 11 callsubr
        </CharString>
        <CharString name="Wcircumflex">
          2315 1071 -66 callsubr
          -42 callsubr
          -738 -424 11 callsubr
        </CharString>
        <CharString name="Wdieresis">
          2315 1072 67 callsubr
          -62 42 callsubr
          139 callsubr
          -1249 -444 11 callsubr
        </CharString>
        <CharString name="Wdotaccent">
          2315 1259 168 callsubr
          -1061 -437 11 callsubr
        </CharString>
        <CharString name="Wdotbelow">
          2315 198 1136 rmoveto
          360 -1136 292 0 312 999 297 -999 299 0 357 1133 51 162 29 23 126 16 rlinecurve
          110 -496 -110 vlineto
          150 -20 12 -25 -41 -148 rrcurveto
          208 callsubr
          963 -1293 -78 callsubr
        </CharString>
        <CharString name="Wgrave">
          2315 1305 20 callsubr
          -753 -721 11 callsubr
        </CharString>
        <CharString name="X">
          1488 289 314 44 callsubr
        </CharString>
        <CharString name="Xdieresis">
          1488 647 67 callsubr
          233 callsubr
          -733 -1266 44 callsubr
        </CharString>
        <CharString name="Xdotaccent">
          1488 834 -72 callsubr
          -65 callsubr
          -545 -1259 44 callsubr
        </CharString>
        <CharString name="Xigreek">
          1397 1308 1444 rmoveto
          -1219 hlineto
          -17 -465 rlineto
          103 hlineto
          199 47 62 27 226 hhcurveto
          377 hlineto
          226 62 -27 -199 47 hvcurveto
          104 hlineto
          -722 -322 rmoveto
          189 hlineto
          108 37 -37 -145 27 hvcurveto
          97 499 -97 hlineto
          -144 -27 -37 -37 -108 hhcurveto
          -189 27 callgsubr
          710 -657 rmoveto
          21 504 rlineto
          -104 hlineto
          -241 -52 -60 -24 -255 hhcurveto
          -331 hlineto
          -255 -61 24 241 -50 hvcurveto
          -104 hlineto
          19 -504 rlineto
          endchar
        </CharString>
        <CharString name="Xigreek.1">
          1399 605 657 rmoveto
          42 -418 -113 hlineto
          -255 -60 24 241 -51 hvcurveto
          -104 hlineto
          20 -504 1232 0 19 504 rlineto
          -103 hlineto
          -241 -51 -61 -24 -255 hhcurveto
          -112 418 41 hlineto
          108 36 -37 -145 27 hvcurveto
          98 499 -98 hlineto
          -144 -27 -36 -37 -108 hhcurveto
          -41 412 135 hlineto
          226 62 -27 -199 47 hvcurveto
          104 hlineto
          -18 465 -1219 0 -18 -465 rlineto
          104 hlineto
          199 47 63 27 225 hhcurveto
          136 -412 -42 27 callgsubr
          endchar
        </CharString>
        <CharString name="Y">
          1462 227 1150 -71 callsubr
          -62 callsubr
        </CharString>
        <CharString name="Yacute">
          1462 799 -4 callsubr
          -435 -410 -71 callsubr
          -62 callsubr
        </CharString>
        <CharString name="Ycircumflex">
          1462 626 65 callsubr
          81 callsubr
          -265 -410 -71 callsubr
          -62 callsubr
        </CharString>
        <CharString name="Ydieresis">
          1462 627 1580 rmoveto
          132 callsubr
          63 -57 77 141 callsubr
          -77 -63 42 callsubr
          -776 -430 -71 callsubr
          -62 callsubr
        </CharString>
        <CharString name="Ydotaccent">
          1462 815 -72 callsubr
          -65 callsubr
          -588 -423 -71 callsubr
          -62 callsubr
        </CharString>
        <CharString name="Ydotbelow">
          1462 227 1150 -71 callsubr
          84 137 28 24 118 16 -76 callgsubr
          152 -17 8 -32 -73 -132 rrcurveto
          -226 -404 -232 404 -76 163 callsubr
          520 -1307 -78 callsubr
        </CharString>
        <CharString name="Yericyrillic">
          2169 1385 458 rmoveto
          277 -216 161 -369 vhcurveto
          -219 299 79 callsubr
          -698 -70 callsubr
          -104 callsubr
          -18 -20 36 callgsubr
          557 -223 -82 callsubr
          -97 callsubr
          -98 callsubr
          -104 callsubr
          -105 callsubr
          25 callsubr
          -932 214 -10 callgsubr
        </CharString>
        <CharString name="Ygrave">
          1462 860 121 callsubr
          -279 -707 -71 callsubr
          -62 callsubr
        </CharString>
        <CharString name="Yhookabove">
          1462 849 -28 callsubr
          51 callsubr
          -622 -764 -71 callsubr
          -62 callsubr
        </CharString>
        <CharString name="Yicyrillic">
          808 217 62 callsubr
          -11 -1345 -82 callsubr
          -97 callsubr
          -98 callsubr
          -104 callsubr
          -105 callsubr
          -80 callsubr
        </CharString>
        <CharString name="Ymacron">
          1462 502 -67 callsubr
          -275 -621 -71 callsubr
          -62 callsubr
        </CharString>
        <CharString name="Ytilde">
          1462 951 -33 callsubr
          -2 -19 213 callsubr
          -724 -408 -71 callsubr
          -62 callsubr
        </CharString>
        <CharString name="Z">
          1338 1249 hmoveto
          -48 callsubr
          230 callsubr
          endchar
        </CharString>
        <CharString name="Zacute">
          1338 664 -85 callsubr
          721 -1560 rmoveto
          -48 callsubr
          230 callsubr
          endchar
        </CharString>
        <CharString name="Zcaron">
          1338 900 142 callsubr
          214 -1867 rmoveto
          -48 callsubr
          230 callsubr
          endchar
        </CharString>
        <CharString name="Zcircumflex">
          1338 492 -66 callsubr
          -247 0 -216 -307 rlineto
          891 -1560 rmoveto
          -48 callsubr
          230 callsubr
          endchar
        </CharString>
        <CharString name="Zdotaccent">
          1338 681 -72 callsubr
          -65 callsubr
          568 -1573 rmoveto
          -48 callsubr
          230 callsubr
          endchar
        </CharString>
        <CharString name="Zdotbelow">
          48 callgsubr
          600 -165 rmoveto
          -82 -65 -58 -82 -81 65 -59 82 82 66 59 81 82 -65 58 -83 hvcurveto
          endchar
        </CharString>
        <CharString name="Zecyrillic">
          1339 1257 423 rmoveto
          218 -168 120 -241 25 vhcurveto
          199 37 160 112 185 vvcurveto
          220 -197 136 -385 -200 -186 -53 -58 -93 vhcurveto
          -11 -344 rlineto
          104 hlineto
          219 53 110 85 179 hhcurveto
          162 95 -94 -153 -164 -112 -104 -189 hvcurveto
          -128 -131 128 hlineto
          218 125 -95 -180 -183 -128 -102 -182 -172 -127 78 234 -54 hvcurveto
          -103 hlineto
          10 -343 rlineto
          -65 107 196 -55 188 hhcurveto
          357 285 173 282 hvcurveto
          endchar
        </CharString>
        <CharString name="Zetagreek">
          1338 1249 hmoveto
          -48 callsubr
          230 callsubr
          endchar
        </CharString>
        <CharString name="Zhecyrillic">
          2157 395 hmoveto
          391 672 rlineto
          118 -442 hlineto
          -86 -17 -18 -137 -16 vhcurveto
          -110 640 110 vlineto
          -138 16 -17 18 86 vvcurveto
          442 119 -33 callgsubr
          -75 25 -39 43 -132 221 rrcurveto
          -313 527 166 -23 callgsubr
          -114 410 hlineto
          86 17 18 138 16 vhcurveto
          110 -640 -110 vlineto
          137 -16 17 -18 -86 vvcurveto
          -410 -114 vlineto
          -294 360 -96 117 22 39 146 14 rlinecurve
          110 -556 -110 vlineto
          138 -22 44 -33 166 -178 rrcurveto
          181 -200 -302 -508 -131 -221 -40 -43 -74 -25 rlinecurve
          -104 vlineto
          endchar
        </CharString>
        <CharString name="Zlinebelow">
          48 callgsubr
          278 -386 -64 callsubr
        </CharString>
        <CharString name="a">
          1237 385 -24 -93 callsubr
        </CharString>
        <CharString name="a.dnum">
          805 250 -14 rmoveto
          101 78 40 59 37 hvcurveto
          -58 18 69 -37 78 hhcurveto
          58 48 15 22 28 hvcurveto
          71 vlineto
          -2 -7 -10 0 -11 hhcurveto
          -31 -26 18 44 hvcurveto
          220 vlineto
          158 -110 68 -183 -181 -116 -73 -87 -54 41 -35 60 60 43 42 54 20 -6 17 -10 15 vhcurveto
          3 15 16 1 83 callgsubr
          -40 -65 -69 -86 vvcurveto
          -84 71 -63 113 vhcurveto
          36 185 rmoveto
          47 35 28 92 19 69 callgsubr
          43 hvcurveto
          endchar
        </CharString>
        <CharString name="a.numr">
          805 250 616 25 callgsubr
          -2 -7 -10 -1 -11 hhcurveto
          -31 -26 18 45 hvcurveto
          219 -17 callgsubr
          2 83 callgsubr
          32 callgsubr
          19 vhcurveto
          44 8 rlineto
          -134 vlineto
          -21 -16 -34 -14 -40 hhcurveto
          -45 -36 23 44 hvcurveto
          endchar
        </CharString>
        <CharString name="a.sups">
          805 250 792 25 callgsubr
          -3 -7 -10 0 -11 hhcurveto
          -31 -26 18 44 hvcurveto
          220 -17 callgsubr
          1 17 hhcurveto
          82 49 -36 -89 hvcurveto
          -26 vlineto
          -131 -27 rlineto
          -195 32 callgsubr
          18 69 callgsubr
          44 hvcurveto
          endchar
        </CharString>
        <CharString name="aacute">
          1237 544 -94 callsubr
          -58 callsubr
          -21 -1200 -93 callsubr
        </CharString>
        <CharString name="abreve">
          1237 575 23 callsubr
          -1 23 -4 -16 callsubr
          -190 -1206 -93 callsubr
        </CharString>
        <CharString name="abreveacute">
          1237 903 4 callsubr
          39 callsubr
          327 -327 98 callsubr
        </CharString>
        <CharString name="abrevecyrillic">
          1237 576 -9 callgsubr
          -42 -56 -20 callgsubr
          -191 -1199 -93 callsubr
        </CharString>
        <CharString name="abrevedotbelow">
          1237 575 23 callsubr
          -1 23 -4 -16 callsubr
          -190 -1206 43 callsubr
          172 callsubr
        </CharString>
        <CharString name="abrevegrave">
          1237 248 127 callsubr
          327 -608 98 callsubr
        </CharString>
        <CharString name="abrevehookabove">
          1237 567 1739 rmoveto
          -83 -79 -29 -37 -48 hvcurveto
          -86 vlineto
          16 31 57 14 50 hhcurveto
          63 callgsubr
          81 55 98 vvcurveto
          97 -100 57 -126 vhcurveto
          8 -602 98 callsubr
        </CharString>
        <CharString name="abrevetilde">
          1237 709 1488 rmoveto
          116 78 82 151 hvcurveto
          -124 hlineto
          -51 -25 -22 -60 callgsubr
          -22 callgsubr
          -134 -351 98 callsubr
        </CharString>
        <CharString name="acaron">
          1237 798 -61 callsubr
          8 callsubr
          -551 -1595 -93 callsubr
        </CharString>
        <CharString name="acircumflex">
          1237 353 103 callsubr
          171 -1200 -93 callsubr
        </CharString>
        <CharString name="acircumflexacute">
          1237 903 4 callsubr
          39 callsubr
          -323 vmoveto
          327 105 19 callsubr
          137 -1277 -93 callsubr
        </CharString>
        <CharString name="acircumflexdotbelow">
          1237 353 103 callsubr
          171 -1200 43 callsubr
          172 callsubr
        </CharString>
        <CharString name="acircumflexgrave">
          1237 248 127 callsubr
          -604 vmoveto
          327 105 19 callsubr
          137 -1277 -93 callsubr
        </CharString>
        <CharString name="acircumflexhookabove">
          1237 828 1739 rmoveto
          -83 -79 -29 -37 -47 hvcurveto
          -86 vlineto
          16 30 58 14 50 hhcurveto
          75 39 -26 -40 -39 -39 -27 -89 -20 hvcurveto
          96 -66 rlineto
          134 33 81 55 98 vvcurveto
          97 -100 57 -126 vhcurveto
          -580 -598 rmoveto
          327 105 19 callsubr
          137 -1277 -93 callsubr
        </CharString>
        <CharString name="acircumflextilde">
          1237 709 1488 rmoveto
          116 78 82 151 hvcurveto
          -124 hlineto
          -51 -25 -22 -60 callgsubr
          -22 callgsubr
          -89 callgsubr
          19 callsubr
          137 -1277 -93 callsubr
        </CharString>
        <CharString name="acute">
          1024 481 -94 callsubr
          -58 callsubr
          endchar
        </CharString>
        <CharString name="acutecmb">
          0 -31 -94 callsubr
          -58 callsubr
          endchar
        </CharString>
        <CharString name="acutecmb.short">
          0 -16 1143 84 callgsubr
          endchar
        </CharString>
        <CharString name="acutedotaccentcmb">
          14 callgsubr
          328 -205 -51 callgsubr
          endchar
        </CharString>
        <CharString name="acutedotaccentcmb.short">
          0 1772 46 callgsubr
          336 -156 -107 callgsubr
          endchar
        </CharString>
        <CharString name="acyrillic">
          1237 385 -24 -93 callsubr
        </CharString>
        <CharString name="adblgrave">
          1237 343 84 callsubr
          -87 callgsubr
          260 396 rmoveto
          -267 -13 hlineto
          187 -383 rlineto
          144 hlineto
          -452 -1200 -93 callsubr
        </CharString>
        <CharString name="adieresis">
          1237 323 1215 rmoveto
          91 73 65 91 90 -73 65 -35 callgsubr
          504 hmoveto
          -54 callgsubr
          -442 -1239 -93 callsubr
        </CharString>
        <CharString name="adieresismacron">
          1237 248 -74 callgsubr
          -75 callsubr
          396 hmoveto
          66 54 48 66 67 -54 48 -66 hvcurveto
          -15 hlineto
          -67 -53 -48 -67 -66 53 -48 67 hvcurveto
          -373 -1182 -93 callsubr
        </CharString>
        <CharString name="adotaccent">
          1237 575 1205 43 callgsubr
          -190 -1229 -93 callsubr
        </CharString>
        <CharString name="adotbelow">
          1237 385 -24 43 callsubr
          172 callsubr
        </CharString>
        <CharString name="adotmacron">
          1237 248 1508 rmoveto
          655 149 -655 hlineto
          327 -504 rmoveto
          74 58 54 73 74 -58 54 -74 -73 -58 -54 -74 -73 58 -54 73 hvcurveto
          -190 -1177 -93 callsubr
        </CharString>
        <CharString name="ae">
          1753 396 -24 148 callsubr
        </CharString>
        <CharString name="aeacute">
          1753 862 -94 callsubr
          -58 callsubr
          -328 -1200 148 callsubr
        </CharString>
        <CharString name="aemacron">
          1753 546 -59 callsubr
          -150 -1470 148 callsubr
        </CharString>
        <CharString name="agrave">
          1237 608 -41 callsubr
          -156 396 rlineto
          -358 -13 hlineto
          153 -1583 -93 callsubr
        </CharString>
        <CharString name="ahookabove">
          1237 621 124 callsubr
          56 18 59 hhcurveto
          76 46 -31 -50 -50 -41 -46 -112 -78 callgsubr
          71 -95 callgsubr
          -236 -1604 -93 callsubr
        </CharString>
        <CharString name="ainvertedbreve">
          1237 575 68 callsubr
          2 -22 3 -19 hvcurveto
          126 7 hlineto
          96 84 72 137 1 callgsubr
          -190 -1590 -93 callsubr
        </CharString>
        <CharString name="alphagreek">
          1381 486 -23 192 callsubr
        </CharString>
        <CharString name="alphatonosgreek">
          1381 719 1176 72 callsubr
          -89 -1199 192 callsubr
        </CharString>
        <CharString name="amacron">
          1237 228 -59 callsubr
          157 -1470 -93 callsubr
        </CharString>
        <CharString name="ampersand">
          1686 543 -28 rmoveto
          191 138 80 145 145 hvcurveto
          205 -197 rlineto
          428 104 hlineto
          -77 25 -66 47 -211 201 rrcurveto
          -66 63 121 145 143 172 49 28 107 14 rlinecurve
          110 -485 -110 vlineto
          137 -22 14 -34 -90 -129 rrcurveto
          -71 -103 -325 310 -4 3 -3 3 -3 3 rlinecurve
          212 83 110 111 141 vvcurveto
          181 -154 130 -256 -286 -178 -164 -199 -116 48 -96 116 -131 vhcurveto
          -237 -82 -117 -137 -182 vvcurveto
          -241 196 -156 269 vhcurveto
          32 1209 rmoveto
          89 65 58 92 98 60 -74 -108 -2 vhcurveto
          -2 -101 -43 -81 -98 -61 rrcurveto
          -128 128 -42 68 82 vvcurveto
          -190 -695 rmoveto
          91 38 66 80 51 vhcurveto
          34 -35 38 -38 42 -41 335 -321 rcurveline
          -67 -77 -74 -27 -84 hhcurveto
          -183 -149 129 192 hvcurveto
          endchar
        </CharString>
        <CharString name="anoteleiagreek">
          599 300 674 rmoveto
          181 callsubr
        </CharString>
        <CharString name="aogonek">
          1235 385 -24 rmoveto
          164 129 70 94 62 hvcurveto
          29 -92 102 -59 120 -1 rrcurveto
          -187 -106 -62 -93 -98 vvcurveto
          -114 100 -69 128 92 95 33 54 47 vhcurveto
          107 vlineto
          -14 -17 -31 -10 -37 hhcurveto
          -52 -45 32 65 84 55 74 126 107 hvcurveto
          103 vlineto
          -4 -13 -17 -2 -20 hhcurveto
          -55 -45 31 84 hvcurveto
          434 vlineto
          255 -173 110 -287 -282 -196 -115 -148 -83 65 -55 90 92 66 62 82 38 -16 35 -25 25 vhcurveto
          10 34 39 5 41 hhcurveto
          139 87 -62 -166 hvcurveto
          -61 vlineto
          -226 -48 rlineto
          -311 -67 -112 -110 -158 vvcurveto
          -149 122 -110 185 vhcurveto
          17 313 rmoveto
          93 63 55 166 37 vhcurveto
          96 21 rlineto
          -267 vlineto
          -48 -32 -63 -33 -76 hhcurveto
          -88 -66 51 91 hvcurveto
          endchar
        </CharString>
        <CharString name="approxequal">
          1282 897 847 rmoveto
          -30 callgsubr
          -513 vmoveto
          -30 callgsubr
          endchar
        </CharString>
        <CharString name="aring">
          1237 260 1374 rmoveto
          -134 135 114 callsubr
          -135 -93 -135 vhcurveto
          209 183 callsubr
          -84 -1398 -93 callsubr
        </CharString>
        <CharString name="aringacute">
          1237 903 1563 rmoveto
          186 vlineto
          -655 -174 rlineto
          -108 vlineto
          372 -8 callgsubr
          73 104 rmoveto
          -56 hlineto
          -45 -25 23 33 34 26 23 44 hvcurveto
          56 hlineto
          45 25 -23 -34 -33 -25 -23 -45 hvcurveto
          -218 -1247 -93 callsubr
        </CharString>
        <CharString name="aringbelow">
          1237 385 -24 43 callsubr
          -80 -586 rmoveto
          -121 136 -81 179 97 callgsubr
          -179 -136 -80 -121 vhcurveto
          209 hmoveto
          57 47 38 59 60 46 -38 -57 -57 -46 -39 -60 -59 -47 39 57 vhcurveto
          endchar
        </CharString>
        <CharString name="asciicircum">
          1282 585 1444 rmoveto
          -486 -602 148 -138 391 481 392 -481 154 138 -484 602 rlineto
          endchar
        </CharString>
        <CharString name="asciitilde">
          1282 897 586 rmoveto
          -134 -186 214 -196 hhcurveto
          -200 -123 -138 -294 hvcurveto
          193 hlineto
          155 2 48 56 -5 callgsubr
          -58 -83 hhcurveto
          endchar
        </CharString>
        <CharString name="asterisk">
          884 419 1110 rmoveto
          46 hlineto
          64 205 rlineto
          99 36 -60 63 -63 hhcurveto
          -64 -58 -62 -100 36 hvcurveto
          109 -205 rmoveto
          22 -41 208 48 rlineto
          103 18 24 84 -31 54 -32 56 -84 19 -67 -82 rrcurveto
          -211 -197 rmoveto
          22 41 -143 156 rlineto
          -66 82 -85 -21 -31 -54 -32 -56 23 -81 105 -19 rrcurveto
          229 -89 rmoveto
          -22 41 -207 -49 rlineto
          -103 -18 -24 -83 31 -54 32 -56 83 -20 67 82 rrcurveto
          211 198 rmoveto
          -22 -41 143 -157 rlineto
          66 -81 86 20 31 55 32 55 -24 82 -104 18 rrcurveto
          -230 8 rmoveto
          -46 hlineto
          -63 -205 rlineto
          -100 -36 60 -62 62 hhcurveto
          64 59 62 100 -36 hvcurveto
          endchar
        </CharString>
        <CharString name="at">
          2081 574 389 rmoveto
          -219 89 -122 146 123 110 67 141 74 vhcurveto
          -140 -1 80 -92 182 hhcurveto
          330 282 272 424 437 -343 302 -530 -645 -377 -507 -515 -525 362 -327 463 187 184 55 68 80 hvcurveto
          1 110 rlineto
          -66 -127 -128 -22 -167 hhcurveto
          -403 -287 267 448 430 316 440 543 444 262 -241 -374 -319 -187 -186 -167 -79 -16 36 97 21 hvcurveto
          140 657 -189 0 -91 -110 rlineto
          83 -34 -78 55 -115 hhcurveto
          -268 -187 -309 -315 hvcurveto
          289 4 rmoveto
          212 100 285 145 67 40 -54 -90 -7 vhcurveto
          -63 -295 rlineto
          -128 -27 -80 -96 -82 hhcurveto
          -61 -32 60 106 hvcurveto
          endchar
        </CharString>
        <CharString name="atilde">
          1237 715 -32 callsubr
          162 callsubr
          126 hlineto
          98 3 19 38 45 hhcurveto
          28 101 callgsubr
          -330 -1231 -93 callsubr
        </CharString>
        <CharString name="austral">
          1518 208 312 rmoveto
          -59 -161 -24 -25 -127 -16 rrcurveto
          -110 498 110 vlineto
          -155 21 -21 28 52 151 rrcurveto
          21 62 551 0 21 -62 52 -150 -20 -29 -156 -21 rlinecurve
          -110 680 110 vlineto
          -125 16 -27 24 -58 158 -23 64 rcurveline
          233 91 -266 hlineto
          -67 186 rlineto
          333 92 -366 hlineto
          -255 703 -279 0 -257 -703 rlineto
          -366 -92 333 hlineto
          -68 -186 rlineto
          -265 -91 231 hlineto
          290 369 rmoveto
          150 438 149 -438 rlineto
          -394 -278 rmoveto
          64 186 362 0 63 -186 rlineto
          endchar
        </CharString>
        <CharString name="austral.tnum">
          1282 -4 458 rmoveto
          -92 182 vlineto
          -17 -56 -48 -162 -13 -27 -103 -11 rlinecurve
          -110 411 110 vlineto
          -125 14 -13 21 45 163 rrcurveto
          17 58 427 0 16 -58 45 -163 -13 -19 -131 -16 rlinecurve
          -110 609 110 vlineto
          -102 11 -14 26 -49 162 -17 57 rcurveline
          183 92 -210 hlineto
          -54 185 rlineto
          264 92 -291 hlineto
          -209 709 -288 0 -211 -709 rlineto
          -291 -92 264 hlineto
          -55 -185 rlineto
          229 277 rmoveto
          113 408 112 -408 rlineto
          -302 -277 rmoveto
          52 185 275 0 50 -185 rlineto
          endchar
        </CharString>
        <CharString name="b">
          -65 callgsubr
          endchar
        </CharString>
        <CharString name="backslash">
          756 502 -280 rmoveto
          251 hlineto
          -498 1860 rlineto
          -251 hlineto
          endchar
        </CharString>
        <CharString name="baht">
          1467 63 30 rmoveto
          653 -219 92 219 hlineto
          327 10 244 144 254 107 callgsubr
          156 97 184 vvcurveto
          194 -175 119 -336 8 vhcurveto
          218 -92 -218 -653 -110 vlineto
          147 -17 18 -20 -88 vvcurveto
          -914 -24 callsubr
          497 674 rmoveto
          474 vlineto
          124 -4 rlineto
          11 11 -1 -1 10 hvcurveto
          -468 vlineto
          -4 -4 0 -4 hhcurveto
          273 237 rmoveto
          -124 -61 -75 -108 -27 vhcurveto
          442 vlineto
          114 -32 55 -75 -109 vvcurveto
          -417 -364 rmoveto
          144 hlineto
          4 4 0 4 hhcurveto
          -525 vlineto
          -1 -10 -11 -1 -11 hhcurveto
          -124 -4 rlineto
          470 271 rmoveto
          -140 -84 -81 -138 -31 vhcurveto
          503 vlineto
          143 -27 79 -87 -137 vvcurveto
          endchar
        </CharString>
        <CharString name="baht.tnum">
          1282 43 40 rmoveto
          593 -229 91 229 hlineto
          295 9 233 144 240 26 callgsubr
          177 -153 116 -313 7 vhcurveto
          229 -91 -229 -593 -109 vlineto
          52 callgsubr
          463 664 rmoveto
          467 vlineto
          111 -3 rlineto
          6 7 0 -1 6 hvcurveto
          -463 vlineto
          -6 -5 0 -6 hhcurveto
          256 242 rmoveto
          -113 -51 -81 -97 -32 vhcurveto
          431 vlineto
          94 -30 54 -70 -105 vvcurveto
          -369 -367 rmoveto
          113 hlineto
          6 5 0 6 hhcurveto
          -520 vlineto
          -1 -6 -7 0 -6 hhcurveto
          -111 -3 rlineto
          423 263 rmoveto
          -136 -82 -79 -120 -31 vhcurveto
          496 vlineto
          129 -28 73 -84 -138 vvcurveto
          endchar
        </CharString>
        <CharString name="bar">
          756 253 -280 rmoveto
          251 1860 -251 hlineto
          endchar
        </CharString>
        <CharString name="bdotaccent">
          1320 322 1622 43 callgsubr
          914 -1094 199 callsubr
          endchar
        </CharString>
        <CharString name="bdotbelow">
          -65 callgsubr
          -234 -949 78 callsubr
          33 callsubr
        </CharString>
        <CharString name="becyrillic">
          1326 1241 506 rmoveto
          305 -205 196 -330 -214 -161 -102 -150 -82 vhcurveto
          -1 16 0 17 18 vvcurveto
          190 88 153 287 28 vhcurveto
          134 12 324 31 90 87 15 225 rlinecurve
          -110 hlineto
          -19 -48 -44 -13 -230 -26 -236 -27 -150 -68 -106 -103 rrcurveto
          -134 -130 -71 -198 -319 vvcurveto
          -370 199 -254 368 319 269 201 329 vhcurveto
          -344 -13 rmoveto
          -239 -82 -134 -146 -142 -87 153 226 222 77 146 154 136 90 -149 -225 vhcurveto
          endchar
        </CharString>
        <CharString name="betagreek">
          1282 133 -460 rmoveto
          340 hlineto
          -5 203 -4 178 -3 157 rrcurveto
          -57 58 101 -47 125 hhcurveto
          233 224 157 286 262 -165 168 -208 32 hvcurveto
          153 18 151 109 176 vvcurveto
          200 -159 153 -313 -306 -222 -163 -395 vhcurveto
          316 87 rmoveto
          209 61 112 142 120 63 -92 -145 -158 -96 -83 -173 -2 vhcurveto
          -219 vlineto
          204 -6 116 -111 -187 vvcurveto
          -172 -104 -81 -126 -84 -73 31 51 -40 vhcurveto
          -8 474 -2 252 127 vvcurveto
          endchar
        </CharString>
        <CharString name="bitcoin">
          1450 63 30 rmoveto
          483 -219 92 219 120 hlineto
          24 24 1 1 23 hvcurveto
          -221 91 231 vlineto
          261 39 182 138 219 107 callgsubr
          155 97 184 vvcurveto
          168 -130 112 -252 32 vhcurveto
          227 -91 -220 vlineto
          1 -23 -23 1 -25 hhcurveto
          -120 218 -92 -218 -483 -9 callsubr
          -914 -24 callsubr
          897 911 rmoveto
          -159 -99 -78 -174 vhcurveto
          -127 474 hlineto
          108 -4 rlineto
          200 -7 92 -83 -143 vvcurveto
          53 -624 rmoveto
          -178 -134 -82 -211 -7 vhcurveto
          -108 -4 rlineto
          531 127 vlineto
          210 116 -93 -167 hvcurveto
          endchar
        </CharString>
        <CharString name="bitcoin.tnum">
          1282 43 40 rmoveto
          422 -229 92 229 142 hlineto
          16 17 0 1 16 hvcurveto
          -230 91 239 vlineto
          240 38 176 137 208 26 callgsubr
          154 -116 109 -238 29 vhcurveto
          236 -91 -229 vlineto
          1 -16 -17 0 -16 hhcurveto
          -142 228 -92 -228 -422 -109 hlineto
          52 callgsubr
          827 906 rmoveto
          -150 -90 -92 -165 vhcurveto
          -104 467 hlineto
          101 -3 rlineto
          161 -4 97 -77 -141 vvcurveto
          54 -632 rmoveto
          -171 -136 -81 -176 -4 vhcurveto
          -101 -3 rlineto
          524 104 vlineto
          195 114 -94 -171 hvcurveto
          endchar
        </CharString>
        <CharString name="blinebelow">
          -65 callgsubr
          -557 -880 -64 callsubr
        </CharString>
        <CharString name="braceleft">
          756 509 1006 rmoveto
          200 vlineto
          144 18 120 173 vhcurveto
          110 -48 vlineto
          -292 -139 -134 -231 hvcurveto
          -304 vlineto
          -154 -77 -55 -117 vhcurveto
          -102 vlineto
          117 77 -55 -154 hvcurveto
          -306 vlineto
          -231 139 -134 292 vhcurveto
          48 110 hlineto
          -173 -18 120 144 hvcurveto
          201 vlineto
          215 -107 110 -194 31 vhcurveto
          194 31 107 109 215 vvcurveto
          endchar
        </CharString>
        <CharString name="braceright">
          756 247 1006 rmoveto
          -215 107 -109 194 -31 vhcurveto
          -194 -31 -107 -110 -215 vvcurveto
          -201 vlineto
          -144 -18 -120 -173 vhcurveto
          -110 48 vlineto
          292 139 134 231 hvcurveto
          306 vlineto
          154 77 55 117 vhcurveto
          102 vlineto
          -117 -77 55 154 hvcurveto
          304 vlineto
          231 -139 134 -292 vhcurveto
          -48 -110 hlineto
          173 18 -120 -144 hvcurveto
          endchar
        </CharString>
        <CharString name="bracketleft">
          756 177 -280 rmoveto
          522 110 -241 1640 241 110 -522 hlineto
          endchar
        </CharString>
        <CharString name="bracketright">
          756 580 1580 rmoveto
          -523 -110 241 -1640 -241 -110 523 hlineto
          endchar
        </CharString>
        <CharString name="breve">
          1024 512 23 callsubr
          -2 23 -3 -16 callsubr
          endchar
        </CharString>
        <CharString name="breveacutecmb">
          -80 callgsubr
          328 -327 100 callsubr
        </CharString>
        <CharString name="breveacutecmb.short">
          125 callsubr
          336 -267 109 callsubr
        </CharString>
        <CharString name="brevebelowcmb">
          0 -469 vmoveto
          156 callsubr
        </CharString>
        <CharString name="brevecmb">
          0 1182 vmoveto
          225 127 148 170 23 -2 23 -3 -16 callsubr
          endchar
        </CharString>
        <CharString name="brevecmb.short">
          0 1163 vmoveto
          207 118 130 146 20 -2 20 -3 15 hvcurveto
          61 callsubr
          0 callsubr
          endchar
        </CharString>
        <CharString name="brevecyrilliccmb">
          0 1175 vmoveto
          213 154 118 161 93 -55 56 -86 -78 -54 -60 -74 -52 29 -46 42 -19 hvcurveto
          -31 -42 -56 -18 -67 hhcurveto
          -67 -56 18 31 -42 hvcurveto
          42 19 30 46 52 vvcurveto
          74 -55 60 -77 -87 -54 -55 -94 -161 153 -118 213 vhcurveto
          endchar
        </CharString>
        <CharString name="brevecyrilliccmb.short">
          0 1573 vmoveto
          212 -85 callgsubr
          56 callgsubr
          -58 -51 -4 callgsubr
          endchar
        </CharString>
        <CharString name="brevegravecmb">
          0 -328 88 callgsubr
          328 -608 100 callsubr
        </CharString>
        <CharString name="brevegravecmb.short">
          0 -336 126 callsubr
          336 -507 109 callsubr
        </CharString>
        <CharString name="brevehookabovecmb">
          0 -9 176 callsubr
          75 39 -26 -40 -39 -38 -27 -90 -20 hvcurveto
          96 -66 rlineto
          134 33 81 55 98 vvcurveto
          97 -99 57 -127 vhcurveto
          9 -602 100 callsubr
        </CharString>
        <CharString name="brevehookabovecmb.short">
          0 -9 2030 rmoveto
          -84 -82 -26 -31 -49 hvcurveto
          -72 vlineto
          12 33 58 14 51 hhcurveto
          77 39 -24 -33 -33 -39 -23 -92 -17 hvcurveto
          99 -57 rlineto
          137 28 84 47 83 vvcurveto
          83 -102 49 -130 vhcurveto
          9 -505 109 callsubr
        </CharString>
        <CharString name="brevetildecmb">
          0 134 1488 15 callsubr
          160 callsubr
          -134 -351 100 callsubr
        </CharString>
        <CharString name="brevetildecmb.short">
          0 138 1815 rmoveto
          118 80 70 128 hvcurveto
          -127 hlineto
          -43 -26 -19 -42 -27 -28 7 12 -38 vhcurveto
          -36 11 rlineto
          -36 callgsubr
          59 callgsubr
          37 -12 rlineto
          -15 48 47 -12 54 hhcurveto
          -138 -290 109 callsubr
        </CharString>
        <CharString name="brokenbar">
          756 253 789 rmoveto
          251 791 -251 hlineto
          -1860 vmoveto
          251 791 -251 hlineto
          endchar
        </CharString>
        <CharString name="bullet">
          852 426 23 callgsubr
          -120 -120 -147 -147 120 -120 146 hvcurveto
          endchar
        </CharString>
        <CharString name="c">
          1119 631 -24 13 callsubr
        </CharString>
        <CharString name="cacute">
          1119 610 -94 callsubr
          -26 callsubr
          159 -1200 13 callsubr
        </CharString>
        <CharString name="caret">
          599 252 hmoveto
          -310 -364 120 -118 235 276 237 -276 124 118 -308 364 rlineto
          endchar
        </CharString>
        <CharString name="caron">
          1024 735 -61 callsubr
          8 callsubr
          endchar
        </CharString>
        <CharString name="caroncmb">
          0 223 -61 callsubr
          8 callsubr
          endchar
        </CharString>
        <CharString name="caroncmb.short">
          0 220 1450 rmoveto
          -205 22 callgsubr
          endchar
        </CharString>
        <CharString name="carondotaccentcmb">
          14 callgsubr
          78 callgsubr
          endchar
        </CharString>
        <CharString name="carondotaccentcmb.short">
          0 1794 46 callgsubr
          343 -11 rmoveto
          -343 -89 -342 89 0 -93 307 -149 73 0 306 149 rlineto
          endchar
        </CharString>
        <CharString name="caronslovak">
          1024 476 1148 -50 callgsubr
          endchar
        </CharString>
        <CharString name="caronslovakcmb">
          0 129 73 callgsubr
          endchar
        </CharString>
        <CharString name="ccaron">
          1119 864 -61 callsubr
          8 callsubr
          -371 -1595 13 callsubr
        </CharString>
        <CharString name="ccedilla">
          1119 579 -492 rmoveto
          -96 callgsubr
          -22 callsubr
          63 72 163 10 135 58 75 84 rlinecurve
          154 callsubr
          -297 199 -191 261 -34 vhcurveto
          -99 -118 -44 callsubr
          -39 callsubr
          41 callsubr
        </CharString>
        <CharString name="ccedillaacute">
          1119 610 -94 callsubr
          -26 callsubr
          107 -1668 rmoveto
          -96 callgsubr
          -22 callsubr
          63 72 163 10 135 58 75 84 rlinecurve
          154 callsubr
          -297 199 -191 261 -34 vhcurveto
          -99 -118 -44 callsubr
          -39 callsubr
          41 callsubr
        </CharString>
        <CharString name="ccircumflex">
          1119 418 -53 callsubr
          -11 callsubr
          351 -1200 13 callsubr
        </CharString>
        <CharString name="cdotaccent">
          1119 641 69 callsubr
          -10 -1229 13 callsubr
        </CharString>
        <CharString name="cedi">
          1369 768 -189 rmoveto
          91 201 hlineto
          170 6 164 47 84 58 10 343 rcurveline
          -104 hlineto
          -239 -56 -105 -68 -161 hhcurveto
          -2 1126 2 hlineto
          160 101 -75 -228 56 hvcurveto
          104 hlineto
          -11 343 -97 57 -136 44 -179 7 rlinecurve
          199 -91 -200 vlineto
          -394 -19 -274 -259 -435 vvcurveto
          -426 291 -258 377 -23 vhcurveto
          -320 728 rmoveto
          305 114 189 206 42 vhcurveto
          -1105 vlineto
          -195 49 -125 208 312 vvcurveto
          endchar
        </CharString>
        <CharString name="cedi.tnum">
          1282 724 -189 rmoveto
          92 201 hlineto
          155 7 150 41 85 51 10 339 rcurveline
          -103 hlineto
          -54 -228 -100 -64 -143 1 rrcurveto
          1126 vlineto
          133 97 -68 -218 51 hvcurveto
          104 hlineto
          -10 338 -91 51 -124 38 -160 6 rlinecurve
          200 -92 -200 vlineto
          -371 -20 -262 -262 1 -431 rrcurveto
          -447 279 -241 353 -19 vhcurveto
          -286 729 rmoveto
          305 100 185 186 44 vhcurveto
          -1105 vlineto
          -180 47 -106 196 328 vvcurveto
          endchar
        </CharString>
        <CharString name="cedilla">
          1024 474 -492 rmoveto
          -96 callgsubr
          -114 67 -139 2 hvcurveto
          62 callgsubr
          -25 -50 -49 -49 -25 -65 -55 -53 -63 callgsubr
        </CharString>
        <CharString name="cedillacmb">
          0 -38 -492 rmoveto
          -96 callgsubr
          -22 callsubr
          62 callgsubr
          -24 -51 -49 -49 -25 -65 41 callsubr
        </CharString>
        <CharString name="cent">
          1152 692 hmoveto
          187 vlineto
          170 11 142 57 77 87 rrcurveto
          110 vlineto
          -54 -66 -116 -29 -103 hhcurveto
          -37 -35 4 8 -32 hvcurveto
          733 vlineto
          1 12 12 0 12 hhcurveto
          36 33 -4 -8 29 hvcurveto
          -26 -25 -15 -36 -40 vvcurveto
          -84 62 -67 88 84 69 62 91 153 -148 96 -248 7 vhcurveto
          184 -92 -187 vlineto
          -285 104 callgsubr
          287 -11 vhcurveto
          -185 vlineto
          -184 768 rmoveto
          162 72 113 112 48 vhcurveto
          -675 vlineto
          -112 62 -72 121 169 vvcurveto
          endchar
        </CharString>
        <CharString name="cent.1">
          1109 680 16 callgsubr
          -215 -155 147 253 216 116 129 159 28 26 -2 -5 22 hvcurveto
          -31 -28 -19 -42 -46 vvcurveto
          -86 67 -65 90 86 70 65 97 153 -133 95 -227 -21 callgsubr
        </CharString>
        <CharString name="cent.1.tnum">
          1282 739 16 callgsubr
          -214 -156 147 253 216 116 129 160 28 25 -2 -5 23 hvcurveto
          -31 -28 -20 -42 -46 vvcurveto
          -86 67 -65 90 86 70 65 97 153 -132 95 -228 -21 callgsubr
        </CharString>
        <CharString name="cent.tnum">
          1282 730 hmoveto
          187 vlineto
          170 11 143 57 76 87 rrcurveto
          110 vlineto
          -54 -66 -116 -29 -103 hhcurveto
          -36 -35 4 8 -33 hvcurveto
          733 vlineto
          1 12 12 0 13 hhcurveto
          35 33 -4 -8 29 hvcurveto
          -25 -25 -16 -36 -40 vvcurveto
          -84 63 -67 87 85 68 62 91 153 -148 96 -248 7 vhcurveto
          184 -91 -187 vlineto
          -286 104 callgsubr
          288 -11 vhcurveto
          -185 vlineto
          -185 768 rmoveto
          162 73 113 112 48 vhcurveto
          -675 vlineto
          -113 62 -72 121 169 vvcurveto
          endchar
        </CharString>
        <CharString name="checyrillic">
          1399 175 705 rmoveto
          -228 154 -106 200 132 121 35 44 65 vhcurveto
          -241 vlineto
          -74 -22 -14 -138 -11 vhcurveto
          -110 638 110 vlineto
          -125 10 -21 14 75 vvcurveto
          609 vlineto
          75 21 14 125 10 vhcurveto
          110 -593 -110 vlineto
          100 -8 15 -14 -73 vvcurveto
          -258 vlineto
          -16 -32 -70 -16 -65 hhcurveto
          -116 -62 57 140 hvcurveto
          93 vlineto
          73 16 15 98 7 vhcurveto
          110 -583 -110 vlineto
          122 -9 20 -15 -75 vvcurveto
          endchar
        </CharString>
        <CharString name="chigreek">
          1215 347 -460 rmoveto
          151 617 134 -295 rlineto
          -256 113 88 -87 158 hhcurveto
          89 78 37 52 49 hvcurveto
          106 vlineto
          -8 -13 -27 -7 -25 hhcurveto
          -74 -45 41 213 -100 hvcurveto
          -160 351 121 234 146 253 158 236 rlinecurve
          -333 hlineto
          -151 -593 -123 269 rlineto
          252 -112 -88 87 -156 hhcurveto
          -90 -77 -37 -52 -50 hvcurveto
          -106 vlineto
          8 14 26 7 25 hhcurveto
          74 47 -40 -214 99 hvcurveto
          147 -323 -136 -270 -148 -262 -141 -213 rlinecurve
          endchar
        </CharString>
        <CharString name="circumflex">
          1024 289 -53 callsubr
          -11 callsubr
          endchar
        </CharString>
        <CharString name="circumflexacutecmb">
          -80 callgsubr
          1 -323 rmoveto
          327 105 19 callsubr
          endchar
        </CharString>
        <CharString name="circumflexacutecmb.short">
          0 336 1854 -107 callgsubr
          1 -281 rmoveto
          335 89 21 callsubr
          endchar
        </CharString>
        <CharString name="circumflexbelowcmb">
          0 -207 -476 -5 callsubr
          122 callsubr
        </CharString>
        <CharString name="circumflexcmb">
          0 -223 -53 callsubr
          -11 callsubr
          endchar
        </CharString>
        <CharString name="circumflexcmb.short">
          0 -189 1143 rmoveto
          205 147 203 -147 137 0 81 callsubr
          endchar
        </CharString>
        <CharString name="circumflexgravecmb">
          0 -328 88 callgsubr
          1 -604 rmoveto
          327 105 19 callsubr
          endchar
        </CharString>
        <CharString name="circumflexgravecmb.short">
          0 -336 167 callsubr
          21 callsubr
          endchar
        </CharString>
</ttFont>
